<svg width="183" height="51" viewBox="0 0 183 51" fill="none" xmlns="http://www.w3.org/2000/svg">
<g filter="url(#filter0_dd_173_97)">
<mask id="path-1-outside-1_173_97" maskUnits="userSpaceOnUse" x="1.64856" y="-0.459412" width="180" height="49" fill="black">
<rect fill="white" x="1.64856" y="-0.459412" width="180" height="49"/>
<path d="M16.7392 18.5562L17.6298 23.15C18.3173 23.0041 19.0829 22.4104 19.9267 21.3687C20.7808 20.327 21.2079 19.4937 21.2079 18.8687C21.2079 18.5458 21.0829 18.3531 20.8329 18.2906C19.7704 18.0198 19.0569 17.8843 18.6923 17.8843C18.0152 17.8843 17.3642 18.1083 16.7392 18.5562ZM20.5048 25.6812C20.1298 26.0562 19.7236 26.4468 19.2861 26.8531C18.8486 27.2489 18.5517 27.5093 18.3954 27.6343L20.4423 39.025L15.0673 40.4312L11.8642 20.0875C11.8017 20.0875 11.6819 20.1812 11.5048 20.3687C11.3381 20.5562 11.109 20.8218 10.8173 21.1656C10.5361 21.5093 10.3746 21.702 10.3329 21.7437C10.3017 21.7437 10.1975 21.5198 10.0204 21.0718C9.85376 20.6239 9.6246 20.0041 9.33293 19.2125C9.05168 18.4104 8.73397 17.525 8.37981 16.5562C8.01522 15.577 7.77043 14.9625 7.64543 14.7125C8.90585 14.2958 10.0881 13.9104 11.1923 13.5562C12.3069 13.202 13.4788 12.8687 14.7079 12.5562C15.9371 12.2333 17.109 11.9781 18.2236 11.7906C19.3486 11.6031 20.4527 11.5093 21.5361 11.5093C22.3798 11.5093 23.1558 11.577 23.8642 11.7125C24.5725 11.8375 25.2392 12.051 25.8642 12.3531C26.4996 12.6552 27.0621 13.0614 27.5517 13.5718C28.0517 14.0718 28.4579 14.6656 28.7704 15.3531C28.8746 15.5614 28.9267 15.827 28.9267 16.15C28.9267 16.6604 28.7704 17.2229 28.4579 17.8375C28.1558 18.4416 27.7496 19.0875 27.2392 19.775C26.7392 20.452 26.1819 21.1552 25.5673 21.8843C26.1402 21.9468 26.6871 22.3635 27.2079 23.1343C27.7392 23.8948 28.1298 24.7958 28.3798 25.8375L31.0673 39.6656L26.3329 40.6968L22.8798 28.025C22.8173 27.8479 22.6975 27.5823 22.5204 27.2281C22.3433 26.8635 22.1038 26.5041 21.8017 26.15C21.4996 25.7958 21.1767 25.6187 20.8329 25.6187C20.76 25.6187 20.6506 25.6395 20.5048 25.6812ZM39.7986 42.4781L32.7517 42.8687L32.3767 26.1031L30.0642 26.6187L30.8298 22.775L38.7673 19.4468L39.7986 42.4781ZM34.6736 9.97809C35.4131 9.97809 36.0486 10.1031 36.5798 10.3531C37.1215 10.5927 37.5642 10.8895 37.9079 11.2437C38.2517 11.5875 38.4861 11.8895 38.6111 12.15C38.7361 12.4312 38.7986 12.7385 38.7986 13.0718C38.7986 13.5823 38.6892 14.1031 38.4704 14.6343C38.2517 15.1552 37.9861 15.6031 37.6736 15.9781C37.3611 16.3531 37.0642 16.5718 36.7829 16.6343C36.2413 16.7177 35.835 16.7593 35.5642 16.7593C34.8767 16.7593 34.2777 16.6395 33.7673 16.4C33.2569 16.1604 32.8506 15.8114 32.5486 15.3531C32.2465 14.8948 32.059 14.3583 31.9861 13.7437C31.9861 12.8583 32.1996 12.0302 32.6267 11.2593C33.0642 10.4885 33.7465 10.0614 34.6736 9.97809ZM52.9204 24.2437C52.3475 24.3166 51.7798 24.4989 51.2173 24.7906C50.6652 25.0823 50.1913 25.426 49.7954 25.8218C49.3996 26.2177 49.0871 26.6552 48.8579 27.1343C48.6392 27.6031 48.5298 28.0666 48.5298 28.525C48.5298 29.4729 48.9777 30.2437 49.8736 30.8375C50.6652 31.3687 51.4673 31.6343 52.2798 31.6343C52.4361 31.6343 52.6496 31.6135 52.9204 31.5718V28.2437C52.6392 28.2437 52.3892 28.1708 52.1704 28.025C51.8579 27.775 51.7017 27.2958 51.7017 26.5875C51.7017 25.5666 52.1079 24.7854 52.9204 24.2437ZM52.7798 9.07184L59.3111 6.13434L59.7017 27.2906C59.785 27.8323 59.8267 28.4468 59.8267 29.1343C59.8267 29.7385 59.8058 30.1864 59.7642 30.4781L59.9517 40.0562L52.9204 40.4312V39.4781C51.7746 39.9468 50.6183 40.1812 49.4517 40.1812C48.5558 40.1812 47.7121 40.0458 46.9204 39.775C46.1392 39.5041 45.4621 39.1395 44.8892 38.6812C43.9621 37.9104 43.2381 36.8739 42.7173 35.5718C42.1965 34.2593 41.9361 32.8739 41.9361 31.4156C41.9361 28.9052 42.66 26.8791 44.1079 25.3375C45.3579 24.025 46.6444 23.0302 47.9673 22.3531C49.3006 21.676 50.66 21.3375 52.0454 21.3375C52.4308 21.3375 52.7225 21.3479 52.9204 21.3687L52.7798 9.07184ZM72.1204 24.2437C71.5475 24.3166 70.9798 24.4989 70.4173 24.7906C69.8652 25.0823 69.3913 25.426 68.9954 25.8218C68.5996 26.2177 68.2871 26.6552 68.0579 27.1343C67.8392 27.6031 67.7298 28.0666 67.7298 28.525C67.7298 29.4729 68.1777 30.2437 69.0736 30.8375C69.8652 31.3687 70.6673 31.6343 71.4798 31.6343C71.6361 31.6343 71.8496 31.6135 72.1204 31.5718V28.2437C71.8392 28.2437 71.5892 28.1708 71.3704 28.025C71.0579 27.775 70.9017 27.2958 70.9017 26.5875C70.9017 25.5666 71.3079 24.7854 72.1204 24.2437ZM71.9798 9.07184L78.5111 6.13434L78.9017 27.2906C78.985 27.8323 79.0267 28.4468 79.0267 29.1343C79.0267 29.7385 79.0058 30.1864 78.9642 30.4781L79.1517 40.0562L72.1204 40.4312V39.4781C70.9746 39.9468 69.8183 40.1812 68.6517 40.1812C67.7558 40.1812 66.9121 40.0458 66.1204 39.775C65.3392 39.5041 64.6621 39.1395 64.0892 38.6812C63.1621 37.9104 62.4381 36.8739 61.9173 35.5718C61.3965 34.2593 61.1361 32.8739 61.1361 31.4156C61.1361 28.9052 61.86 26.8791 63.3079 25.3375C64.5579 24.025 65.8444 23.0302 67.1673 22.3531C68.5006 21.676 69.86 21.3375 71.2454 21.3375C71.6308 21.3375 71.9225 21.3479 72.1204 21.3687L71.9798 9.07184ZM89.6486 43.5093L82.6017 43.9L81.1954 16.7593L78.8986 17.275L79.6642 13.4312L87.6017 10.1031L89.6486 43.5093ZM106.552 30.9L110.317 35.4468C110.015 36.3218 109.296 37.1239 108.161 37.8531C107.036 38.5823 105.692 39.1552 104.13 39.5718C102.578 39.9989 101.026 40.2125 99.4736 40.2125C98.0986 40.2125 96.8694 40.0302 95.7861 39.6656C94.7131 39.301 93.885 38.7489 93.3017 38.0093C92.2913 36.7385 91.7861 35.1135 91.7861 33.1343C91.7861 31.5718 92.0673 30.0354 92.6298 28.525C93.2027 27.0041 93.8069 25.9416 94.4423 25.3375C95.2027 24.6187 96.0256 24.0198 96.9111 23.5406C97.8069 23.0614 98.734 22.702 99.6923 22.4625C100.651 22.2229 101.635 22.1031 102.645 22.1031C103.968 22.1031 105.224 22.3166 106.411 22.7437C107.609 23.1604 108.656 23.7698 109.552 24.5718L100.974 34.8062C101.734 34.8062 102.453 34.65 103.13 34.3375C103.817 34.0145 104.448 33.5614 105.02 32.9781C105.593 32.3843 106.104 31.6916 106.552 30.9ZM102.224 27.2593C101.713 26.9989 101.192 26.8687 100.661 26.8687C100.099 26.8687 99.5517 26.9833 99.0204 27.2125C98.4996 27.4416 98.1298 27.7125 97.9111 28.025C97.2652 28.8583 96.9423 29.775 96.9423 30.775C96.9423 31.1395 96.9788 31.4885 97.0517 31.8218C97.1246 32.1552 97.2496 32.6135 97.4267 33.1968L102.224 27.2593ZM113.642 16.2437L121.33 15.7281L123.377 19.0562L125.174 14.4468L130.158 14.3218L136.049 41.7125L126.955 40.8218L125.299 31.4781L123.502 34.9312L121.08 30.5875L120.299 38.5093L111.47 39.15L113.642 16.2437ZM151.124 22.6187C151.863 23.0145 152.462 23.551 152.92 24.2281C153.389 24.8948 153.728 25.65 153.936 26.4937C154.155 27.327 154.264 28.1968 154.264 29.1031C154.264 29.8531 154.202 30.577 154.077 31.275C153.962 31.9729 153.801 32.6135 153.592 33.1968C153.384 33.7802 153.139 34.275 152.858 34.6812C152.202 35.6604 151.499 36.5041 150.749 37.2125C149.999 37.9208 149.233 38.4937 148.452 38.9312C147.67 39.3583 146.894 39.6708 146.124 39.8687C145.363 40.077 144.608 40.1812 143.858 40.1812C142.973 40.1812 142.129 40.0406 141.327 39.7593C140.535 39.4885 139.858 39.1291 139.295 38.6812C138.368 37.9104 137.644 36.8739 137.124 35.5718C136.603 34.2593 136.342 32.8739 136.342 31.4156C136.342 28.9052 137.066 26.8791 138.514 25.3375C139.754 24.0145 141.035 23.0198 142.358 22.3531C143.681 21.676 145.035 21.3375 146.42 21.3375C147.233 21.3375 148.014 21.4416 148.764 21.65C149.514 21.8479 150.301 22.1708 151.124 22.6187ZM150.202 25.2437C150.025 26.0354 149.639 26.7333 149.045 27.3375C148.462 27.9416 147.889 28.2437 147.327 28.2437C147.045 28.2437 146.795 28.1708 146.577 28.025C146.264 27.775 146.108 27.3375 146.108 26.7125C146.108 26.2333 146.264 25.7593 146.577 25.2906C146.9 24.8218 147.405 24.452 148.092 24.1812C147.405 24.1812 146.738 24.3114 146.092 24.5718C145.457 24.8323 144.91 25.1708 144.452 25.5875C143.993 25.9937 143.624 26.4573 143.342 26.9781C143.071 27.4885 142.936 28.0041 142.936 28.525C142.936 29.4937 143.384 30.2645 144.28 30.8375C145.113 31.3687 145.905 31.6343 146.655 31.6343C147.394 31.6343 148.051 31.3895 148.624 30.9C149.196 30.4 149.634 29.7645 149.936 28.9937C150.238 28.2125 150.389 27.4416 150.389 26.6812C150.389 26.1604 150.327 25.6812 150.202 25.2437ZM162.933 21.4937C164.089 21.1083 165.084 20.8166 165.917 20.6187C166.751 20.4104 167.548 20.3062 168.308 20.3062C169.329 20.3062 170.225 20.5302 170.995 20.9781C171.923 21.5093 172.923 22.4156 173.995 23.6968C175.068 24.9781 175.735 26.1656 175.995 27.2593C176.548 29.4781 176.824 31.4156 176.824 33.0718C176.824 33.9468 176.766 34.8687 176.652 35.8375C176.537 36.7958 176.36 38.0302 176.12 39.5406L169.589 39.9312C169.61 39.4104 169.62 38.6604 169.62 37.6812C169.62 33.5979 169.058 30.1239 167.933 27.2593C167.495 26.1864 167.068 25.65 166.652 25.65C166.11 25.65 165.511 26.4 164.855 27.9C164.699 28.2645 164.568 28.6812 164.464 29.15C164.37 29.6187 164.298 30.1448 164.245 30.7281C164.204 31.3114 164.183 31.9989 164.183 32.7906C164.183 34.3948 164.277 36.4312 164.464 38.9L156.792 39.7906C156.667 38.8739 156.553 37.9625 156.449 37.0562C156.344 36.15 156.261 35.3114 156.199 34.5406C156.146 33.7593 156.12 32.9208 156.12 32.025C156.12 31.6395 156.141 31.0823 156.183 30.3531L155.902 21.2437L162.042 20.4625L162.933 21.4937Z"/>
</mask>
<path d="M16.7392 18.5562L17.6298 23.15C18.3173 23.0041 19.0829 22.4104 19.9267 21.3687C20.7808 20.327 21.2079 19.4937 21.2079 18.8687C21.2079 18.5458 21.0829 18.3531 20.8329 18.2906C19.7704 18.0198 19.0569 17.8843 18.6923 17.8843C18.0152 17.8843 17.3642 18.1083 16.7392 18.5562ZM20.5048 25.6812C20.1298 26.0562 19.7236 26.4468 19.2861 26.8531C18.8486 27.2489 18.5517 27.5093 18.3954 27.6343L20.4423 39.025L15.0673 40.4312L11.8642 20.0875C11.8017 20.0875 11.6819 20.1812 11.5048 20.3687C11.3381 20.5562 11.109 20.8218 10.8173 21.1656C10.5361 21.5093 10.3746 21.702 10.3329 21.7437C10.3017 21.7437 10.1975 21.5198 10.0204 21.0718C9.85376 20.6239 9.6246 20.0041 9.33293 19.2125C9.05168 18.4104 8.73397 17.525 8.37981 16.5562C8.01522 15.577 7.77043 14.9625 7.64543 14.7125C8.90585 14.2958 10.0881 13.9104 11.1923 13.5562C12.3069 13.202 13.4788 12.8687 14.7079 12.5562C15.9371 12.2333 17.109 11.9781 18.2236 11.7906C19.3486 11.6031 20.4527 11.5093 21.5361 11.5093C22.3798 11.5093 23.1558 11.577 23.8642 11.7125C24.5725 11.8375 25.2392 12.051 25.8642 12.3531C26.4996 12.6552 27.0621 13.0614 27.5517 13.5718C28.0517 14.0718 28.4579 14.6656 28.7704 15.3531C28.8746 15.5614 28.9267 15.827 28.9267 16.15C28.9267 16.6604 28.7704 17.2229 28.4579 17.8375C28.1558 18.4416 27.7496 19.0875 27.2392 19.775C26.7392 20.452 26.1819 21.1552 25.5673 21.8843C26.1402 21.9468 26.6871 22.3635 27.2079 23.1343C27.7392 23.8948 28.1298 24.7958 28.3798 25.8375L31.0673 39.6656L26.3329 40.6968L22.8798 28.025C22.8173 27.8479 22.6975 27.5823 22.5204 27.2281C22.3433 26.8635 22.1038 26.5041 21.8017 26.15C21.4996 25.7958 21.1767 25.6187 20.8329 25.6187C20.76 25.6187 20.6506 25.6395 20.5048 25.6812ZM39.7986 42.4781L32.7517 42.8687L32.3767 26.1031L30.0642 26.6187L30.8298 22.775L38.7673 19.4468L39.7986 42.4781ZM34.6736 9.97809C35.4131 9.97809 36.0486 10.1031 36.5798 10.3531C37.1215 10.5927 37.5642 10.8895 37.9079 11.2437C38.2517 11.5875 38.4861 11.8895 38.6111 12.15C38.7361 12.4312 38.7986 12.7385 38.7986 13.0718C38.7986 13.5823 38.6892 14.1031 38.4704 14.6343C38.2517 15.1552 37.9861 15.6031 37.6736 15.9781C37.3611 16.3531 37.0642 16.5718 36.7829 16.6343C36.2413 16.7177 35.835 16.7593 35.5642 16.7593C34.8767 16.7593 34.2777 16.6395 33.7673 16.4C33.2569 16.1604 32.8506 15.8114 32.5486 15.3531C32.2465 14.8948 32.059 14.3583 31.9861 13.7437C31.9861 12.8583 32.1996 12.0302 32.6267 11.2593C33.0642 10.4885 33.7465 10.0614 34.6736 9.97809ZM52.9204 24.2437C52.3475 24.3166 51.7798 24.4989 51.2173 24.7906C50.6652 25.0823 50.1913 25.426 49.7954 25.8218C49.3996 26.2177 49.0871 26.6552 48.8579 27.1343C48.6392 27.6031 48.5298 28.0666 48.5298 28.525C48.5298 29.4729 48.9777 30.2437 49.8736 30.8375C50.6652 31.3687 51.4673 31.6343 52.2798 31.6343C52.4361 31.6343 52.6496 31.6135 52.9204 31.5718V28.2437C52.6392 28.2437 52.3892 28.1708 52.1704 28.025C51.8579 27.775 51.7017 27.2958 51.7017 26.5875C51.7017 25.5666 52.1079 24.7854 52.9204 24.2437ZM52.7798 9.07184L59.3111 6.13434L59.7017 27.2906C59.785 27.8323 59.8267 28.4468 59.8267 29.1343C59.8267 29.7385 59.8058 30.1864 59.7642 30.4781L59.9517 40.0562L52.9204 40.4312V39.4781C51.7746 39.9468 50.6183 40.1812 49.4517 40.1812C48.5558 40.1812 47.7121 40.0458 46.9204 39.775C46.1392 39.5041 45.4621 39.1395 44.8892 38.6812C43.9621 37.9104 43.2381 36.8739 42.7173 35.5718C42.1965 34.2593 41.9361 32.8739 41.9361 31.4156C41.9361 28.9052 42.66 26.8791 44.1079 25.3375C45.3579 24.025 46.6444 23.0302 47.9673 22.3531C49.3006 21.676 50.66 21.3375 52.0454 21.3375C52.4308 21.3375 52.7225 21.3479 52.9204 21.3687L52.7798 9.07184ZM72.1204 24.2437C71.5475 24.3166 70.9798 24.4989 70.4173 24.7906C69.8652 25.0823 69.3913 25.426 68.9954 25.8218C68.5996 26.2177 68.2871 26.6552 68.0579 27.1343C67.8392 27.6031 67.7298 28.0666 67.7298 28.525C67.7298 29.4729 68.1777 30.2437 69.0736 30.8375C69.8652 31.3687 70.6673 31.6343 71.4798 31.6343C71.6361 31.6343 71.8496 31.6135 72.1204 31.5718V28.2437C71.8392 28.2437 71.5892 28.1708 71.3704 28.025C71.0579 27.775 70.9017 27.2958 70.9017 26.5875C70.9017 25.5666 71.3079 24.7854 72.1204 24.2437ZM71.9798 9.07184L78.5111 6.13434L78.9017 27.2906C78.985 27.8323 79.0267 28.4468 79.0267 29.1343C79.0267 29.7385 79.0058 30.1864 78.9642 30.4781L79.1517 40.0562L72.1204 40.4312V39.4781C70.9746 39.9468 69.8183 40.1812 68.6517 40.1812C67.7558 40.1812 66.9121 40.0458 66.1204 39.775C65.3392 39.5041 64.6621 39.1395 64.0892 38.6812C63.1621 37.9104 62.4381 36.8739 61.9173 35.5718C61.3965 34.2593 61.1361 32.8739 61.1361 31.4156C61.1361 28.9052 61.86 26.8791 63.3079 25.3375C64.5579 24.025 65.8444 23.0302 67.1673 22.3531C68.5006 21.676 69.86 21.3375 71.2454 21.3375C71.6308 21.3375 71.9225 21.3479 72.1204 21.3687L71.9798 9.07184ZM89.6486 43.5093L82.6017 43.9L81.1954 16.7593L78.8986 17.275L79.6642 13.4312L87.6017 10.1031L89.6486 43.5093ZM106.552 30.9L110.317 35.4468C110.015 36.3218 109.296 37.1239 108.161 37.8531C107.036 38.5823 105.692 39.1552 104.13 39.5718C102.578 39.9989 101.026 40.2125 99.4736 40.2125C98.0986 40.2125 96.8694 40.0302 95.7861 39.6656C94.7131 39.301 93.885 38.7489 93.3017 38.0093C92.2913 36.7385 91.7861 35.1135 91.7861 33.1343C91.7861 31.5718 92.0673 30.0354 92.6298 28.525C93.2027 27.0041 93.8069 25.9416 94.4423 25.3375C95.2027 24.6187 96.0256 24.0198 96.9111 23.5406C97.8069 23.0614 98.734 22.702 99.6923 22.4625C100.651 22.2229 101.635 22.1031 102.645 22.1031C103.968 22.1031 105.224 22.3166 106.411 22.7437C107.609 23.1604 108.656 23.7698 109.552 24.5718L100.974 34.8062C101.734 34.8062 102.453 34.65 103.13 34.3375C103.817 34.0145 104.448 33.5614 105.02 32.9781C105.593 32.3843 106.104 31.6916 106.552 30.9ZM102.224 27.2593C101.713 26.9989 101.192 26.8687 100.661 26.8687C100.099 26.8687 99.5517 26.9833 99.0204 27.2125C98.4996 27.4416 98.1298 27.7125 97.9111 28.025C97.2652 28.8583 96.9423 29.775 96.9423 30.775C96.9423 31.1395 96.9788 31.4885 97.0517 31.8218C97.1246 32.1552 97.2496 32.6135 97.4267 33.1968L102.224 27.2593ZM113.642 16.2437L121.33 15.7281L123.377 19.0562L125.174 14.4468L130.158 14.3218L136.049 41.7125L126.955 40.8218L125.299 31.4781L123.502 34.9312L121.08 30.5875L120.299 38.5093L111.47 39.15L113.642 16.2437ZM151.124 22.6187C151.863 23.0145 152.462 23.551 152.92 24.2281C153.389 24.8948 153.728 25.65 153.936 26.4937C154.155 27.327 154.264 28.1968 154.264 29.1031C154.264 29.8531 154.202 30.577 154.077 31.275C153.962 31.9729 153.801 32.6135 153.592 33.1968C153.384 33.7802 153.139 34.275 152.858 34.6812C152.202 35.6604 151.499 36.5041 150.749 37.2125C149.999 37.9208 149.233 38.4937 148.452 38.9312C147.67 39.3583 146.894 39.6708 146.124 39.8687C145.363 40.077 144.608 40.1812 143.858 40.1812C142.973 40.1812 142.129 40.0406 141.327 39.7593C140.535 39.4885 139.858 39.1291 139.295 38.6812C138.368 37.9104 137.644 36.8739 137.124 35.5718C136.603 34.2593 136.342 32.8739 136.342 31.4156C136.342 28.9052 137.066 26.8791 138.514 25.3375C139.754 24.0145 141.035 23.0198 142.358 22.3531C143.681 21.676 145.035 21.3375 146.42 21.3375C147.233 21.3375 148.014 21.4416 148.764 21.65C149.514 21.8479 150.301 22.1708 151.124 22.6187ZM150.202 25.2437C150.025 26.0354 149.639 26.7333 149.045 27.3375C148.462 27.9416 147.889 28.2437 147.327 28.2437C147.045 28.2437 146.795 28.1708 146.577 28.025C146.264 27.775 146.108 27.3375 146.108 26.7125C146.108 26.2333 146.264 25.7593 146.577 25.2906C146.9 24.8218 147.405 24.452 148.092 24.1812C147.405 24.1812 146.738 24.3114 146.092 24.5718C145.457 24.8323 144.91 25.1708 144.452 25.5875C143.993 25.9937 143.624 26.4573 143.342 26.9781C143.071 27.4885 142.936 28.0041 142.936 28.525C142.936 29.4937 143.384 30.2645 144.28 30.8375C145.113 31.3687 145.905 31.6343 146.655 31.6343C147.394 31.6343 148.051 31.3895 148.624 30.9C149.196 30.4 149.634 29.7645 149.936 28.9937C150.238 28.2125 150.389 27.4416 150.389 26.6812C150.389 26.1604 150.327 25.6812 150.202 25.2437ZM162.933 21.4937C164.089 21.1083 165.084 20.8166 165.917 20.6187C166.751 20.4104 167.548 20.3062 168.308 20.3062C169.329 20.3062 170.225 20.5302 170.995 20.9781C171.923 21.5093 172.923 22.4156 173.995 23.6968C175.068 24.9781 175.735 26.1656 175.995 27.2593C176.548 29.4781 176.824 31.4156 176.824 33.0718C176.824 33.9468 176.766 34.8687 176.652 35.8375C176.537 36.7958 176.36 38.0302 176.12 39.5406L169.589 39.9312C169.61 39.4104 169.62 38.6604 169.62 37.6812C169.62 33.5979 169.058 30.1239 167.933 27.2593C167.495 26.1864 167.068 25.65 166.652 25.65C166.11 25.65 165.511 26.4 164.855 27.9C164.699 28.2645 164.568 28.6812 164.464 29.15C164.37 29.6187 164.298 30.1448 164.245 30.7281C164.204 31.3114 164.183 31.9989 164.183 32.7906C164.183 34.3948 164.277 36.4312 164.464 38.9L156.792 39.7906C156.667 38.8739 156.553 37.9625 156.449 37.0562C156.344 36.15 156.261 35.3114 156.199 34.5406C156.146 33.7593 156.12 32.9208 156.12 32.025C156.12 31.6395 156.141 31.0823 156.183 30.3531L155.902 21.2437L162.042 20.4625L162.933 21.4937Z" fill="#FFCB05"/>
<path d="M16.7392 18.5562L14.4091 15.3049L12.3241 16.7992L12.8123 19.3175L16.7392 18.5562ZM17.6298 23.15L13.7029 23.9113L14.4777 27.9076L18.4598 27.0629L17.6298 23.15ZM19.9267 21.3687L16.8336 18.8324L16.826 18.8417L16.8184 18.851L19.9267 21.3687ZM20.8329 18.2906L19.8449 22.1666L19.8538 22.1689L19.8628 22.1712L20.8329 18.2906ZM20.5048 25.6812L19.4059 21.8351L18.4093 22.1199L17.6764 22.8528L20.5048 25.6812ZM19.2861 26.8531L21.9697 29.8192L21.9889 29.8019L22.0079 29.7843L19.2861 26.8531ZM18.3954 27.6343L15.8967 24.5109L14.0374 25.9983L14.4585 28.3418L18.3954 27.6343ZM20.4423 39.025L21.4547 42.8947L25.0335 41.9584L24.3792 38.3175L20.4423 39.025ZM15.0673 40.4312L11.116 41.0533L11.8035 45.4198L16.0797 44.301L15.0673 40.4312ZM11.8642 20.0875L15.8155 19.4653L15.2837 16.0875H11.8642V20.0875ZM11.5048 20.3687L8.59675 17.6222L8.55529 17.6661L8.51517 17.7113L11.5048 20.3687ZM10.8173 21.1656L7.76727 18.5777L7.74413 18.605L7.72148 18.6326L10.8173 21.1656ZM10.3329 21.7437V25.7437H11.9898L13.1614 24.5721L10.3329 21.7437ZM10.0204 21.0718L6.27154 22.4668L6.28568 22.5048L6.30059 22.5425L10.0204 21.0718ZM9.33293 19.2125L5.55826 20.536L5.56868 20.5658L5.57956 20.5953L9.33293 19.2125ZM8.37981 16.5562L12.1366 15.1828L12.1325 15.1716L12.1284 15.1605L8.37981 16.5562ZM7.64543 14.7125L6.38994 10.9146L1.99998 12.3658L4.06772 16.5013L7.64543 14.7125ZM11.1923 13.5562L9.98096 9.74403L9.9706 9.74735L11.1923 13.5562ZM14.7079 12.5562L15.6935 16.4329L15.7089 16.429L15.7243 16.4249L14.7079 12.5562ZM18.2236 11.7906L17.566 7.84501L17.56 7.84601L18.2236 11.7906ZM23.8642 11.7125L23.1131 15.6413L23.141 15.6467L23.169 15.6516L23.8642 11.7125ZM25.8642 12.3531L24.1235 15.9545L24.1351 15.9601L24.1467 15.9656L25.8642 12.3531ZM27.5517 13.5718L24.665 16.3407L24.6938 16.3708L24.7233 16.4003L27.5517 13.5718ZM28.7704 15.3531L25.129 17.0083L25.1596 17.0757L25.1927 17.1419L28.7704 15.3531ZM28.4579 17.8375L24.8924 16.0245L24.8863 16.0365L24.8802 16.0486L28.4579 17.8375ZM27.2392 19.775L24.0275 17.3906L24.0214 17.3988L27.2392 19.775ZM25.5673 21.8843L22.5088 19.3064L17.6707 25.0466L25.1335 25.8607L25.5673 21.8843ZM27.2079 23.1343L23.8936 25.3738L23.911 25.3996L23.9289 25.4252L27.2079 23.1343ZM28.3798 25.8375L32.3063 25.0743L32.2897 24.9888L32.2694 24.904L28.3798 25.8375ZM31.0673 39.6656L31.9186 43.5739L35.74 42.7416L34.9938 38.9025L31.0673 39.6656ZM26.3329 40.6968L22.4737 41.7485L23.4724 45.4137L27.1843 44.6052L26.3329 40.6968ZM22.8798 28.025L26.7391 26.9733L26.7005 26.8319L26.6518 26.6937L22.8798 28.025ZM22.5204 27.2281L18.9224 28.9757L18.9324 28.9964L18.9427 29.0169L22.5204 27.2281ZM16.7392 18.5562L12.8123 19.3175L13.7029 23.9113L17.6298 23.15L21.5567 22.3886L20.6661 17.7949L16.7392 18.5562ZM17.6298 23.15L18.4598 27.0629C20.5579 26.6179 22.0664 25.0821 23.0349 23.8864L19.9267 21.3687L16.8184 18.851C16.6754 19.0276 16.5548 19.1614 16.4575 19.2603C16.3594 19.36 16.2959 19.413 16.2684 19.4344C16.2401 19.4563 16.2655 19.4326 16.3457 19.3918C16.4271 19.3503 16.5803 19.2836 16.7998 19.237L17.6298 23.15ZM19.9267 21.3687L23.0198 23.905C23.5559 23.2511 24.0612 22.5403 24.4474 21.7868C24.818 21.0637 25.2079 20.0531 25.2079 18.8687H21.2079H17.2079C17.2079 18.5729 17.2577 18.3595 17.2891 18.2523C17.3205 18.1449 17.3451 18.1044 17.3279 18.1381C17.3117 18.1696 17.2692 18.246 17.1846 18.3698C17.101 18.4922 16.9864 18.646 16.8336 18.8324L19.9267 21.3687ZM21.2079 18.8687H25.2079C25.2079 18.2354 25.0911 17.2628 24.47 16.3052C23.788 15.2538 22.7809 14.6545 21.8031 14.41L20.8329 18.2906L19.8628 22.1712C19.135 21.9892 18.3153 21.5174 17.7583 20.6588C17.2622 19.8939 17.2079 19.1792 17.2079 18.8687H21.2079ZM20.8329 18.2906L21.8209 14.4145C20.844 14.1655 19.6429 13.8843 18.6923 13.8843V17.8843V21.8843C18.5575 21.8843 18.4916 21.8734 18.5327 21.8785C18.5624 21.8823 18.6334 21.8927 18.7551 21.9158C19.0009 21.9624 19.3579 22.0425 19.8449 22.1666L20.8329 18.2906ZM18.6923 17.8843V13.8843C17.0687 13.8843 15.6176 14.4388 14.4091 15.3049L16.7392 18.5562L19.0693 21.8075C19.1027 21.7835 19.0788 21.8068 18.9974 21.8348C18.9114 21.8643 18.8041 21.8843 18.6923 21.8843V17.8843ZM20.5048 25.6812L17.6764 22.8528C17.3403 23.1889 16.97 23.5452 16.5643 23.9219L19.2861 26.8531L22.0079 29.7843C22.4771 29.3485 22.9193 28.9236 23.3332 28.5096L20.5048 25.6812ZM19.2861 26.8531L16.6024 23.8869C16.3922 24.0771 16.2251 24.2264 16.0975 24.3382C16.034 24.394 15.9845 24.4367 15.9474 24.4683C15.9082 24.5017 15.8933 24.5135 15.8967 24.5109L18.3954 27.6343L20.8942 30.7578C21.1607 30.5446 21.5461 30.2025 21.9697 29.8192L19.2861 26.8531ZM18.3954 27.6343L14.4585 28.3418L16.5054 39.7324L20.4423 39.025L24.3792 38.3175L22.3324 26.9269L18.3954 27.6343ZM20.4423 39.025L19.4299 35.1552L14.0549 36.5615L15.0673 40.4312L16.0797 44.301L21.4547 42.8947L20.4423 39.025ZM15.0673 40.4312L19.0186 39.8091L15.8155 19.4653L11.8642 20.0875L7.91286 20.7096L11.116 41.0533L15.0673 40.4312ZM11.8642 20.0875V16.0875C10.9297 16.0875 10.2454 16.4099 9.97717 16.5479C9.65064 16.7158 9.40528 16.8958 9.26223 17.0078C8.97378 17.2335 8.74229 17.4681 8.59675 17.6222L11.5048 20.3687L14.4129 23.1152C14.4444 23.0818 14.3614 23.1758 14.1927 23.3078C14.1095 23.3729 13.9169 23.5177 13.636 23.6622C13.4133 23.7767 12.7674 24.0875 11.8642 24.0875V20.0875ZM11.5048 20.3687L8.51517 17.7113C8.31813 17.9329 8.06587 18.2258 7.76727 18.5777L10.8173 21.1656L13.8673 23.7535C14.1521 23.4179 14.3581 23.1795 14.4944 23.0262L11.5048 20.3687ZM10.8173 21.1656L7.72148 18.6326C7.58449 18.8001 7.48517 18.9203 7.41919 18.9991C7.38555 19.0392 7.3686 19.059 7.36389 19.0644C7.36146 19.0672 7.369 19.0585 7.38342 19.0425C7.39092 19.0341 7.40392 19.0198 7.42106 19.0015C7.43674 18.9847 7.46596 18.9538 7.5045 18.9153L10.3329 21.7437L13.1614 24.5721C13.386 24.3475 13.7262 23.9271 13.9131 23.6985L10.8173 21.1656ZM10.3329 21.7437V17.7437C11.4905 17.7437 12.2929 18.2372 12.6058 18.4542C12.9662 18.7042 13.2035 18.9582 13.3151 19.0844C13.5433 19.3426 13.6806 19.5689 13.7188 19.632C13.7753 19.7256 13.8127 19.7974 13.828 19.8273C13.8458 19.862 13.8562 19.8844 13.8583 19.8888C13.8617 19.8962 13.8529 19.8775 13.8293 19.8212C13.8071 19.7681 13.7777 19.6958 13.7403 19.6012L10.0204 21.0718L6.30059 22.5425C6.3964 22.7848 6.5014 23.041 6.60448 23.2627C6.64818 23.3566 6.74208 23.5551 6.87289 23.7714C6.92802 23.8626 7.07993 24.1098 7.32048 24.382C7.43825 24.5153 7.68121 24.7745 8.04662 25.0279C8.36459 25.2485 9.17147 25.7437 10.3329 25.7437V21.7437ZM10.0204 21.0718L13.7693 19.6769C13.6049 19.2349 13.3774 18.6198 13.0863 17.8296L9.33293 19.2125L5.57956 20.5953C5.87178 21.3884 6.10266 22.0129 6.27154 22.4668L10.0204 21.0718ZM9.33293 19.2125L13.1076 17.8889C12.8194 17.0671 12.4956 16.1647 12.1366 15.1828L8.37981 16.5562L4.623 17.9297C4.97233 18.8852 5.28393 19.7537 5.55826 20.536L9.33293 19.2125ZM8.37981 16.5562L12.1284 15.1605C11.7884 14.2472 11.4647 13.4068 11.2231 12.9236L7.64543 14.7125L4.06772 16.5013C4.04708 16.46 4.08523 16.5361 4.2067 16.841C4.31349 17.1092 4.45419 17.4765 4.63122 17.952L8.37981 16.5562ZM7.64543 14.7125L8.90092 18.5103C10.1517 18.0969 11.3226 17.7152 12.414 17.3651L11.1923 13.5562L9.9706 9.74735C8.85368 10.1056 7.66003 10.4947 6.38994 10.9146L7.64543 14.7125ZM11.1923 13.5562L12.4037 17.3684C13.4377 17.0398 14.5339 16.7277 15.6935 16.4329L14.7079 12.5562L13.7223 8.67954C12.4236 9.00973 11.1761 9.36429 9.98096 9.74404L11.1923 13.5562ZM14.7079 12.5562L15.7243 16.4249C16.8511 16.1289 17.9047 15.9004 18.8871 15.7352L18.2236 11.7906L17.56 7.84601C16.3132 8.05575 15.0231 8.33769 13.6916 8.68749L14.7079 12.5562ZM18.2236 11.7906L18.8812 15.7362C19.8002 15.583 20.6843 15.5093 21.5361 15.5093V11.5093V7.50934C20.2212 7.50934 18.8969 7.62319 17.566 7.84501L18.2236 11.7906ZM21.5361 11.5093V15.5093C22.1691 15.5093 22.6898 15.5604 23.1131 15.6413L23.8642 11.7125L24.6153 7.78362C23.6219 7.5937 22.5905 7.50934 21.5361 7.50934V11.5093ZM23.8642 11.7125L23.169 15.6516C23.5282 15.715 23.8417 15.8183 24.1235 15.9545L25.8642 12.3531L27.6049 8.75169C26.6367 8.28375 25.6169 7.95996 24.5593 7.77333L23.8642 11.7125ZM25.8642 12.3531L24.1467 15.9656C24.3422 16.0585 24.509 16.1782 24.665 16.3407L27.5517 13.5718L30.4384 10.8029C29.6152 9.94468 28.657 9.25181 27.5816 8.74055L25.8642 12.3531ZM27.5517 13.5718L24.7233 16.4003C24.8616 16.5386 25.0014 16.7275 25.129 17.0083L28.7704 15.3531L32.4119 13.6979C31.9145 12.6036 31.2417 11.6051 30.3801 10.7434L27.5517 13.5718ZM28.7704 15.3531L25.1927 17.1419C24.9332 16.6228 24.9267 16.2218 24.9267 16.15H28.9267H32.9267C32.9267 15.4323 32.816 14.5 32.3481 13.5642L28.7704 15.3531ZM28.9267 16.15H24.9267C24.9267 15.9958 24.9503 15.9024 24.9554 15.8841C24.96 15.8678 24.949 15.9131 24.8924 16.0245L28.4579 17.8375L32.0235 19.6504C32.5261 18.6619 32.9267 17.4719 32.9267 16.15H28.9267ZM28.4579 17.8375L24.8802 16.0486C24.7059 16.3973 24.4338 16.8434 24.0275 17.3906L27.2392 19.775L30.4508 22.1594C31.0654 21.3315 31.6058 20.4859 32.0356 19.6263L28.4579 17.8375ZM27.2392 19.775L24.0214 17.3988C23.5785 17.9986 23.0753 18.6344 22.5088 19.3064L25.5673 21.8843L28.6258 24.4622C29.2885 23.676 29.8999 22.9055 30.4569 22.1511L27.2392 19.775ZM25.5673 21.8843L25.1335 25.8607C24.5679 25.799 24.1759 25.5725 23.983 25.4254C23.8125 25.2955 23.7965 25.2302 23.8936 25.3738L27.2079 23.1343L30.5223 20.8949C29.7412 19.7388 28.3012 18.1589 26.0011 17.9079L25.5673 21.8843ZM27.2079 23.1343L23.9289 25.4252C24.1327 25.717 24.3392 26.1416 24.4903 26.771L28.3798 25.8375L32.2694 24.904C31.9204 23.45 31.3456 22.0726 30.487 20.8435L27.2079 23.1343ZM28.3798 25.8375L24.4533 26.6006L27.1408 40.4287L31.0673 39.6656L34.9938 38.9025L32.3063 25.0743L28.3798 25.8375ZM31.0673 39.6656L30.216 35.7572L25.4816 36.7885L26.3329 40.6968L27.1843 44.6052L31.9186 43.5739L31.0673 39.6656ZM26.3329 40.6968L30.1922 39.6452L26.7391 26.9733L22.8798 28.025L19.0205 29.0766L22.4737 41.7485L26.3329 40.6968ZM22.8798 28.025L26.6518 26.6937C26.5016 26.2683 26.2869 25.8167 26.0981 25.4392L22.5204 27.2281L18.9427 29.0169C19.0152 29.162 19.0649 29.2668 19.0967 29.3374C19.1123 29.3718 19.1206 29.3916 19.1235 29.3985C19.1269 29.4068 19.1202 29.3911 19.1078 29.3562L22.8798 28.025ZM22.5204 27.2281L26.1185 25.4805C25.7732 24.7696 25.3354 24.1291 24.845 23.5542L21.8017 26.15L18.7583 28.7458C18.8722 28.8792 18.9135 28.9574 18.9224 28.9757L22.5204 27.2281ZM21.8017 26.15L24.845 23.5542C24.0668 22.6417 22.724 21.6187 20.8329 21.6187V25.6187V29.6187C20.2847 29.6187 19.7943 29.4697 19.4096 29.2588C19.0497 29.0614 18.8426 28.8445 18.7583 28.7458L21.8017 26.15ZM20.8329 25.6187V21.6187C20.1705 21.6187 19.6106 21.7766 19.4059 21.8351L20.5048 25.6812L21.6037 29.5273C21.5993 29.5286 21.5414 29.5453 21.4447 29.5637C21.3943 29.5733 21.3196 29.586 21.2256 29.5968C21.1341 29.6072 20.9993 29.6187 20.8329 29.6187V25.6187ZM39.7986 42.4781L40.0199 46.472L43.9716 46.2529L43.7946 42.2992L39.7986 42.4781ZM32.7517 42.8687L28.7527 42.9582L28.8451 47.0914L32.9731 46.8626L32.7517 42.8687ZM32.3767 26.1031L36.3757 26.0136L36.2666 21.1375L31.5062 22.199L32.3767 26.1031ZM30.0642 26.6187L26.1412 25.8373L24.9418 31.8591L30.9347 30.5228L30.0642 26.6187ZM30.8298 22.775L29.2831 19.0861L27.3222 19.9083L26.9069 21.9936L30.8298 22.775ZM38.7673 19.4468L42.7633 19.2679L42.5069 13.5415L37.2206 15.758L38.7673 19.4468ZM34.6736 9.97809V5.97809H34.4941L34.3155 5.99415L34.6736 9.97809ZM36.5798 10.3531L34.8766 13.9724L34.919 13.9923L34.9618 14.0112L36.5798 10.3531ZM37.9079 11.2437L35.0376 14.0296L35.0584 14.051L35.0795 14.0721L37.9079 11.2437ZM38.6111 12.15L42.2663 10.5254L42.2425 10.4719L42.2171 10.419L38.6111 12.15ZM38.4704 14.6343L42.1584 16.1833L42.1638 16.1703L42.1691 16.1573L38.4704 14.6343ZM36.7829 16.6343L37.3912 20.5878L37.5217 20.5677L37.6507 20.5391L36.7829 16.6343ZM31.9861 13.7437H27.9861V13.9802L28.0139 14.215L31.9861 13.7437ZM32.6267 11.2593L29.1479 9.28492L29.1378 9.3028L29.1278 9.32078L32.6267 11.2593ZM39.7986 42.4781L39.5772 38.4842L32.5303 38.8748L32.7517 42.8687L32.9731 46.8626L40.0199 46.472L39.7986 42.4781ZM32.7517 42.8687L36.7507 42.7793L36.3757 26.0136L32.3767 26.1031L28.3777 26.1925L28.7527 42.9582L32.7517 42.8687ZM32.3767 26.1031L31.5062 22.199L29.1937 22.7146L30.0642 26.6187L30.9347 30.5228L33.2472 30.0072L32.3767 26.1031ZM30.0642 26.6187L33.9871 27.4001L34.7527 23.5564L30.8298 22.775L26.9069 21.9936L26.1412 25.8373L30.0642 26.6187ZM30.8298 22.775L32.3765 26.4638L40.314 23.1357L38.7673 19.4468L37.2206 15.758L29.2831 19.0861L30.8298 22.775ZM38.7673 19.4468L34.7713 19.6258L35.8026 42.657L39.7986 42.4781L43.7946 42.2992L42.7633 19.2679L38.7673 19.4468ZM34.6736 9.97809V13.9781C34.9727 13.9781 34.9978 14.0294 34.8766 13.9724L36.5798 10.3531L38.283 6.73381C37.0993 6.17677 35.8536 5.97809 34.6736 5.97809V9.97809ZM36.5798 10.3531L34.9618 14.0112C35.1257 14.0837 35.1153 14.1096 35.0376 14.0296L37.9079 11.2437L40.7783 8.45781C40.0131 7.66948 39.1173 7.10162 38.1978 6.69495L36.5798 10.3531ZM37.9079 11.2437L35.0795 14.0721C35.1631 14.1557 35.1898 14.1912 35.1812 14.1801C35.1756 14.1729 35.1553 14.1462 35.126 14.1004C35.0971 14.0551 35.0533 13.9816 35.005 13.8809L38.6111 12.15L42.2171 10.419C41.8081 9.56686 41.2124 8.8913 40.7364 8.41529L37.9079 11.2437ZM38.6111 12.15L34.9558 13.7745C34.8351 13.503 34.7986 13.2511 34.7986 13.0718H38.7986H42.7986C42.7986 12.2259 42.637 11.3594 42.2663 10.5254L38.6111 12.15ZM38.7986 13.0718H34.7986C34.7986 13.0393 34.8022 13.0216 34.8019 13.0232C34.8014 13.0258 34.7951 13.0545 34.7717 13.1113L38.4704 14.6343L42.1691 16.1573C42.5619 15.2035 42.7986 14.1664 42.7986 13.0718H38.7986ZM38.4704 14.6343L34.7825 13.0854C34.6938 13.2965 34.6228 13.3908 34.6007 13.4174L37.6736 15.9781L40.7464 18.5388C41.3493 17.8154 41.8095 17.0138 42.1584 16.1833L38.4704 14.6343ZM37.6736 15.9781L34.6007 13.4174C34.5884 13.4321 34.6653 13.3347 34.8437 13.2032C35.0231 13.071 35.3824 12.848 35.9152 12.7296L36.7829 16.6343L37.6507 20.5391C39.215 20.1915 40.2242 19.1656 40.7464 18.5388L37.6736 15.9781ZM36.7829 16.6343L36.1747 12.6809C35.9495 12.7155 35.782 12.7369 35.6639 12.749C35.5358 12.7621 35.5136 12.7593 35.5642 12.7593V16.7593V20.7593C36.1536 20.7593 36.8082 20.6775 37.3912 20.5878L36.7829 16.6343ZM35.5642 16.7593V12.7593C35.4516 12.7593 35.3952 12.7494 35.3838 12.7472C35.3743 12.7453 35.4072 12.751 35.4669 12.779L33.7673 16.4L32.0677 20.0209C33.2135 20.5588 34.4155 20.7593 35.5642 20.7593V16.7593ZM33.7673 16.4L35.4669 12.779C35.5218 12.8048 35.6008 12.851 35.6862 12.9243C35.7721 12.9981 35.84 13.0784 35.8884 13.1518L32.5486 15.3531L29.2087 17.5543C29.9278 18.6453 30.9093 19.4772 32.0677 20.0209L33.7673 16.4ZM32.5486 15.3531L35.8884 13.1518C35.9247 13.207 35.9464 13.2558 35.9574 13.2872C35.9678 13.317 35.9634 13.316 35.9582 13.2724L31.9861 13.7437L28.0139 14.215C28.1507 15.3681 28.5227 16.5135 29.2087 17.5543L32.5486 15.3531ZM31.9861 13.7437H35.9861C35.9861 13.5331 36.0288 13.3725 36.1255 13.1979L32.6267 11.2593L29.1278 9.32078C28.3704 10.6878 27.9861 12.1834 27.9861 13.7437H31.9861ZM32.6267 11.2593L36.1054 13.2338C36.0304 13.366 35.8657 13.5781 35.5888 13.7514C35.3191 13.9203 35.0965 13.9562 35.0317 13.962L34.6736 9.97809L34.3155 5.99415C32.1593 6.18796 30.2707 7.30665 29.1479 9.28492L32.6267 11.2593ZM52.9204 24.2437L55.1392 27.5719L52.4154 20.2757L52.9204 24.2437ZM51.2173 24.7906L49.376 21.2396L49.3624 21.2466L49.3488 21.2538L51.2173 24.7906ZM48.8579 27.1343L45.2494 25.4085L45.2412 25.4256L45.2332 25.4428L48.8579 27.1343ZM49.8736 30.8375L52.1024 27.516L52.0929 27.5096L52.0834 27.5033L49.8736 30.8375ZM52.9204 31.5718L53.5287 35.5253L56.9204 35.0035V31.5718H52.9204ZM52.9204 28.2437H56.9204V24.2437H52.9204V28.2437ZM52.1704 28.025L49.6717 31.1484L49.8072 31.2569L49.9516 31.3532L52.1704 28.025ZM52.7798 9.07184L51.1391 5.42382L48.7501 6.49829L48.7801 9.11758L52.7798 9.07184ZM59.3111 6.13434L63.3104 6.0605L63.1985 -1.90735e-05L57.6703 2.48632L59.3111 6.13434ZM59.7017 27.2906L55.7024 27.3644L55.7073 27.6332L55.7482 27.8988L59.7017 27.2906ZM59.7642 30.4781L55.8044 29.9124L55.7586 30.2328L55.7649 30.5564L59.7642 30.4781ZM59.9517 40.0562L60.1647 44.0505L64.0266 43.8446L63.9509 39.9779L59.9517 40.0562ZM52.9204 40.4312H48.9204V44.6502L53.1335 44.4255L52.9204 40.4312ZM52.9204 39.4781H56.9204V33.52L51.4059 35.7759L52.9204 39.4781ZM46.9204 39.775L45.6103 43.5543L45.618 43.557L45.6257 43.5596L46.9204 39.775ZM44.8892 38.6812L42.3318 41.7569L42.3609 41.7811L42.3904 41.8047L44.8892 38.6812ZM42.7173 35.5718L38.9993 37.0472L39.0034 37.0574L42.7173 35.5718ZM44.1079 25.3375L41.2114 22.5788L41.2018 22.5889L41.1922 22.5991L44.1079 25.3375ZM47.9673 22.3531L46.1562 18.7866L46.1449 18.7924L47.9673 22.3531ZM52.9204 21.3687L52.5017 25.3467L56.9716 25.8172L56.9202 21.323L52.9204 21.3687ZM52.9204 24.2437L52.4154 20.2757C51.3328 20.4135 50.3155 20.7524 49.376 21.2396L51.2173 24.7906L53.0586 28.3416C53.2441 28.2454 53.3622 28.2198 53.4254 28.2117L52.9204 24.2437ZM51.2173 24.7906L49.3488 21.2538C48.4835 21.711 47.6761 22.2843 46.967 22.9934L49.7954 25.8218L52.6239 28.6503C52.7064 28.5677 52.847 28.4535 53.0858 28.3274L51.2173 24.7906ZM49.7954 25.8218L46.967 22.9934C46.2679 23.6925 45.6846 24.4986 45.2494 25.4085L48.8579 27.1343L52.4665 28.8602C52.4896 28.8118 52.5312 28.7429 52.6239 28.6503L49.7954 25.8218ZM48.8579 27.1343L45.2332 25.4428C44.7992 26.3728 44.5298 27.4111 44.5298 28.525H48.5298H52.5298C52.5298 28.617 52.5185 28.6947 52.5049 28.7522C52.4917 28.8082 52.4791 28.8335 52.4827 28.8259L48.8579 27.1343ZM48.5298 28.525H44.5298C44.5298 31.0114 45.825 32.9529 47.6637 34.1716L49.8736 30.8375L52.0834 27.5033C52.044 27.4772 52.1822 27.5599 52.3242 27.8044C52.4775 28.0682 52.5298 28.3393 52.5298 28.525H48.5298ZM49.8736 30.8375L47.6447 34.1589C48.9786 35.0541 50.5435 35.6343 52.2798 35.6343V31.6343V27.6343C52.3177 27.6343 52.3381 27.6418 52.3264 27.6379C52.31 27.6325 52.2354 27.6052 52.1024 27.516L49.8736 30.8375ZM52.2798 31.6343V35.6343C52.7363 35.6343 53.1823 35.5786 53.5287 35.5253L52.9204 31.5718L52.3122 27.6184C52.2728 27.6244 52.2409 27.6289 52.2162 27.6321C52.1912 27.6353 52.1758 27.6369 52.1688 27.6376C52.1615 27.6383 52.1667 27.6377 52.1827 27.6368C52.1911 27.6363 52.2033 27.6357 52.219 27.6352C52.2347 27.6347 52.2551 27.6343 52.2798 27.6343V31.6343ZM52.9204 31.5718H56.9204V28.2437H52.9204H48.9204V31.5718H52.9204ZM52.9204 28.2437V24.2437C53.371 24.2437 53.9044 24.3735 54.3892 24.6968L52.1704 28.025L49.9516 31.3532C50.874 31.9681 51.9073 32.2437 52.9204 32.2437V28.2437ZM52.1704 28.025L54.6692 24.9015C55.2625 25.3761 55.5207 25.928 55.6218 26.238C55.7153 26.5247 55.7017 26.6773 55.7017 26.5875H51.7017H47.7017C47.7017 27.6189 47.8831 29.7176 49.6717 31.1484L52.1704 28.025ZM51.7017 26.5875H55.7017C55.7017 26.6168 55.6925 26.8174 55.5552 27.0813C55.4143 27.3524 55.2319 27.5102 55.1392 27.5719L52.9204 24.2437L50.7016 20.9155C48.7172 22.2385 47.7017 24.3019 47.7017 26.5875H51.7017ZM52.7798 9.07184L54.4205 12.7199L60.9518 9.78235L59.3111 6.13434L57.6703 2.48632L51.1391 5.42382L52.7798 9.07184ZM59.3111 6.13434L55.3117 6.20818L55.7024 27.3644L59.7017 27.2906L63.701 27.2167L63.3104 6.0605L59.3111 6.13434ZM59.7017 27.2906L55.7482 27.8988C55.7939 28.1962 55.8267 28.6017 55.8267 29.1343H59.8267H63.8267C63.8267 28.292 63.7761 27.4683 63.6552 26.6824L59.7017 27.2906ZM59.8267 29.1343H55.8267C55.8267 29.3942 55.8221 29.5925 55.8154 29.7376C55.8082 29.8926 55.8005 29.9394 55.8044 29.9124L59.7642 30.4781L63.724 31.0438C63.8077 30.4575 63.8267 29.7744 63.8267 29.1343H59.8267ZM59.7642 30.4781L55.7649 30.5564L55.9524 40.1345L59.9517 40.0562L63.9509 39.9779L63.7634 30.3998L59.7642 30.4781ZM59.9517 40.0562L59.7387 36.0619L52.7074 36.4369L52.9204 40.4312L53.1335 44.4255L60.1647 44.0505L59.9517 40.0562ZM52.9204 40.4312H56.9204V39.4781H52.9204H48.9204V40.4312H52.9204ZM52.9204 39.4781L51.4059 35.7759C50.711 36.0602 50.0677 36.1812 49.4517 36.1812V40.1812V44.1812C51.169 44.1812 52.8382 43.8335 54.435 43.1803L52.9204 39.4781ZM49.4517 40.1812V36.1812C48.9651 36.1812 48.5615 36.1088 48.2152 35.9903L46.9204 39.775L45.6257 43.5596C46.8627 43.9828 48.1466 44.1812 49.4517 44.1812V40.1812ZM46.9204 39.775L48.2306 35.9956C47.8259 35.8553 47.5628 35.6976 47.388 35.5577L44.8892 38.6812L42.3904 41.8047C43.3614 42.5815 44.4525 43.1529 45.6103 43.5543L46.9204 39.775ZM44.8892 38.6812L47.4465 35.6055C47.1091 35.325 46.7454 34.8717 46.4312 34.0863L42.7173 35.5718L39.0034 37.0574C39.7309 38.8761 40.8151 40.4958 42.3318 41.7569L44.8892 38.6812ZM42.7173 35.5718L46.4353 34.0965C46.1069 33.269 45.9361 32.3856 45.9361 31.4156H41.9361H37.9361C37.9361 33.3622 38.2861 35.2497 38.9993 37.0472L42.7173 35.5718ZM41.9361 31.4156H45.9361C45.9361 29.7203 46.3994 28.7404 47.0236 28.0758L44.1079 25.3375L41.1922 22.5991C38.9206 25.0178 37.9361 28.09 37.9361 31.4156H41.9361ZM44.1079 25.3375L47.0045 28.0961C48.01 27.0403 48.9444 26.3465 49.7897 25.9138L47.9673 22.3531L46.1449 18.7924C44.3444 19.7139 42.7059 21.0096 41.2114 22.5788L44.1079 25.3375ZM47.9673 22.3531L49.7784 25.9196C50.5961 25.5044 51.3386 25.3375 52.0454 25.3375V21.3375V17.3375C49.9815 17.3375 48.0052 17.8477 46.1562 18.7866L47.9673 22.3531ZM52.0454 21.3375V25.3375C52.2046 25.3375 52.3245 25.3397 52.4105 25.3427C52.5023 25.346 52.5259 25.3493 52.5017 25.3467L52.9204 21.3687L53.3392 17.3907C52.9274 17.3474 52.4671 17.3375 52.0454 17.3375V21.3375ZM52.9204 21.3687L56.9202 21.323L56.7795 9.0261L52.7798 9.07184L48.7801 9.11758L48.9207 21.4145L52.9204 21.3687ZM72.1204 24.2437L74.3392 27.5719L71.6154 20.2757L72.1204 24.2437ZM70.4173 24.7906L68.576 21.2396L68.5624 21.2466L68.5488 21.2538L70.4173 24.7906ZM68.0579 27.1343L64.4494 25.4085L64.4412 25.4256L64.4332 25.4428L68.0579 27.1343ZM69.0736 30.8375L71.3024 27.516L71.2929 27.5096L71.2834 27.5033L69.0736 30.8375ZM72.1204 31.5718L72.7287 35.5253L76.1204 35.0035V31.5718H72.1204ZM72.1204 28.2437H76.1204V24.2437H72.1204V28.2437ZM71.3704 28.025L68.8717 31.1484L69.0072 31.2569L69.1516 31.3532L71.3704 28.025ZM71.9798 9.07184L70.3391 5.42382L67.9501 6.49829L67.9801 9.11758L71.9798 9.07184ZM78.5111 6.13434L82.5104 6.0605L82.3985 -1.90735e-05L76.8703 2.48632L78.5111 6.13434ZM78.9017 27.2906L74.9024 27.3644L74.9073 27.6332L74.9482 27.8988L78.9017 27.2906ZM78.9642 30.4781L75.0044 29.9124L74.9586 30.2328L74.9649 30.5564L78.9642 30.4781ZM79.1517 40.0562L79.3647 44.0505L83.2266 43.8446L83.1509 39.9779L79.1517 40.0562ZM72.1204 40.4312H68.1204V44.6502L72.3335 44.4255L72.1204 40.4312ZM72.1204 39.4781H76.1204V33.52L70.6059 35.7759L72.1204 39.4781ZM66.1204 39.775L64.8103 43.5543L64.818 43.557L64.8257 43.5596L66.1204 39.775ZM64.0892 38.6812L61.5318 41.7569L61.5609 41.7811L61.5904 41.8047L64.0892 38.6812ZM61.9173 35.5718L58.1993 37.0472L58.2034 37.0574L61.9173 35.5718ZM63.3079 25.3375L60.4114 22.5788L60.4018 22.5889L60.3922 22.5991L63.3079 25.3375ZM67.1673 22.3531L65.3562 18.7866L65.3449 18.7924L67.1673 22.3531ZM72.1204 21.3687L71.7017 25.3467L76.1716 25.8172L76.1202 21.323L72.1204 21.3687ZM72.1204 24.2437L71.6154 20.2757C70.5328 20.4135 69.5155 20.7524 68.576 21.2396L70.4173 24.7906L72.2586 28.3416C72.4441 28.2454 72.5622 28.2198 72.6254 28.2117L72.1204 24.2437ZM70.4173 24.7906L68.5488 21.2538C67.6834 21.711 66.8761 22.2843 66.167 22.9934L68.9954 25.8218L71.8239 28.6503C71.9064 28.5677 72.047 28.4535 72.2858 28.3274L70.4173 24.7906ZM68.9954 25.8218L66.167 22.9934C65.4679 23.6925 64.8846 24.4986 64.4494 25.4085L68.0579 27.1343L71.6665 28.8602C71.6896 28.8118 71.7312 28.7429 71.8239 28.6503L68.9954 25.8218ZM68.0579 27.1343L64.4332 25.4428C63.9992 26.3728 63.7298 27.4111 63.7298 28.525H67.7298H71.7298C71.7298 28.617 71.7185 28.6947 71.7049 28.7522C71.6917 28.8082 71.6791 28.8335 71.6827 28.8259L68.0579 27.1343ZM67.7298 28.525H63.7298C63.7298 31.0114 65.025 32.9529 66.8637 34.1716L69.0736 30.8375L71.2834 27.5033C71.244 27.4772 71.3822 27.5599 71.5242 27.8044C71.6775 28.0682 71.7298 28.3393 71.7298 28.525H67.7298ZM69.0736 30.8375L66.8447 34.1589C68.1786 35.0541 69.7435 35.6343 71.4798 35.6343V31.6343V27.6343C71.5177 27.6343 71.5381 27.6418 71.5264 27.6379C71.51 27.6325 71.4354 27.6052 71.3024 27.516L69.0736 30.8375ZM71.4798 31.6343V35.6343C71.9363 35.6343 72.3823 35.5786 72.7287 35.5253L72.1204 31.5718L71.5122 27.6184C71.4728 27.6244 71.4409 27.6289 71.4162 27.6321C71.3912 27.6353 71.3757 27.6369 71.3687 27.6376C71.3615 27.6383 71.3667 27.6377 71.3827 27.6368C71.3911 27.6363 71.4033 27.6357 71.419 27.6352C71.4347 27.6347 71.4551 27.6343 71.4798 27.6343V31.6343ZM72.1204 31.5718H76.1204V28.2437H72.1204H68.1204V31.5718H72.1204ZM72.1204 28.2437V24.2437C72.571 24.2437 73.1044 24.3735 73.5892 24.6968L71.3704 28.025L69.1516 31.3532C70.074 31.9681 71.1073 32.2437 72.1204 32.2437V28.2437ZM71.3704 28.025L73.8692 24.9015C74.4625 25.3761 74.7207 25.928 74.8218 26.238C74.9153 26.5247 74.9017 26.6773 74.9017 26.5875H70.9017H66.9017C66.9017 27.6189 67.0831 29.7176 68.8717 31.1484L71.3704 28.025ZM70.9017 26.5875H74.9017C74.9017 26.6168 74.8925 26.8174 74.7552 27.0813C74.6143 27.3524 74.4319 27.5102 74.3392 27.5719L72.1204 24.2437L69.9016 20.9155C67.9172 22.2385 66.9017 24.3019 66.9017 26.5875H70.9017ZM71.9798 9.07184L73.6205 12.7199L80.1518 9.78235L78.5111 6.13434L76.8703 2.48632L70.3391 5.42382L71.9798 9.07184ZM78.5111 6.13434L74.5117 6.20818L74.9024 27.3644L78.9017 27.2906L82.901 27.2167L82.5104 6.0605L78.5111 6.13434ZM78.9017 27.2906L74.9482 27.8988C74.9939 28.1962 75.0267 28.6017 75.0267 29.1343H79.0267H83.0267C83.0267 28.292 82.9761 27.4683 82.8552 26.6824L78.9017 27.2906ZM79.0267 29.1343H75.0267C75.0267 29.3942 75.0221 29.5925 75.0154 29.7376C75.0082 29.8926 75.0005 29.9394 75.0044 29.9124L78.9642 30.4781L82.924 31.0438C83.0077 30.4575 83.0267 29.7744 83.0267 29.1343H79.0267ZM78.9642 30.4781L74.9649 30.5564L75.1524 40.1345L79.1517 40.0562L83.1509 39.9779L82.9634 30.3998L78.9642 30.4781ZM79.1517 40.0562L78.9387 36.0619L71.9074 36.4369L72.1204 40.4312L72.3335 44.4255L79.3647 44.0505L79.1517 40.0562ZM72.1204 40.4312H76.1204V39.4781H72.1204H68.1204V40.4312H72.1204ZM72.1204 39.4781L70.6059 35.7759C69.911 36.0602 69.2677 36.1812 68.6517 36.1812V40.1812V44.1812C70.369 44.1812 72.0382 43.8335 73.635 43.1803L72.1204 39.4781ZM68.6517 40.1812V36.1812C68.1651 36.1812 67.7615 36.1088 67.4152 35.9903L66.1204 39.775L64.8257 43.5596C66.0627 43.9828 67.3466 44.1812 68.6517 44.1812V40.1812ZM66.1204 39.775L67.4306 35.9956C67.0259 35.8553 66.7628 35.6976 66.588 35.5577L64.0892 38.6812L61.5904 41.8047C62.5614 42.5815 63.6525 43.1529 64.8103 43.5543L66.1204 39.775ZM64.0892 38.6812L66.6465 35.6055C66.3091 35.325 65.9454 34.8717 65.6312 34.0863L61.9173 35.5718L58.2034 37.0574C58.9309 38.8761 60.0151 40.4958 61.5318 41.7569L64.0892 38.6812ZM61.9173 35.5718L65.6353 34.0965C65.3069 33.269 65.1361 32.3856 65.1361 31.4156H61.1361H57.1361C57.1361 33.3622 57.486 35.2497 58.1993 37.0472L61.9173 35.5718ZM61.1361 31.4156H65.1361C65.1361 29.7203 65.5994 28.7404 66.2236 28.0758L63.3079 25.3375L60.3922 22.5991C58.1206 25.0178 57.1361 28.09 57.1361 31.4156H61.1361ZM63.3079 25.3375L66.2045 28.0961C67.21 27.0403 68.1444 26.3465 68.9897 25.9138L67.1673 22.3531L65.3449 18.7924C63.5444 19.7139 61.9059 21.0096 60.4114 22.5788L63.3079 25.3375ZM67.1673 22.3531L68.9784 25.9196C69.7961 25.5044 70.5386 25.3375 71.2454 25.3375V21.3375V17.3375C69.1815 17.3375 67.2052 17.8477 65.3562 18.7866L67.1673 22.3531ZM71.2454 21.3375V25.3375C71.4046 25.3375 71.5245 25.3397 71.6105 25.3427C71.7023 25.346 71.7259 25.3493 71.7017 25.3467L72.1204 21.3687L72.5392 17.3907C72.1274 17.3474 71.6671 17.3375 71.2454 17.3375V21.3375ZM72.1204 21.3687L76.1202 21.323L75.9795 9.0261L71.9798 9.07184L67.9801 9.11758L68.1207 21.4145L72.1204 21.3687ZM89.6486 43.5093L89.8699 47.5032L93.8871 47.2805L93.6411 43.2647L89.6486 43.5093ZM82.6017 43.9L78.607 44.1069L78.8148 48.116L82.8231 47.8938L82.6017 43.9ZM81.1954 16.7593L85.1901 16.5524L84.9448 11.8181L80.3193 12.8565L81.1954 16.7593ZM78.8986 17.275L74.9756 16.4936L73.7743 22.5249L79.7747 21.1778L78.8986 17.275ZM79.6642 13.4312L78.1175 9.74235L76.1566 10.5645L75.7412 12.6498L79.6642 13.4312ZM87.6017 10.1031L91.5942 9.85846L91.2497 4.23612L86.055 6.41423L87.6017 10.1031ZM89.6486 43.5093L89.4272 39.5155L82.3803 39.9061L82.6017 43.9L82.8231 47.8938L89.8699 47.5032L89.6486 43.5093ZM82.6017 43.9L86.5963 43.693L85.1901 16.5524L81.1954 16.7593L77.2008 16.9663L78.607 44.1069L82.6017 43.9ZM81.1954 16.7593L80.3193 12.8565L78.0224 13.3721L78.8986 17.275L79.7747 21.1778L82.0716 20.6622L81.1954 16.7593ZM78.8986 17.275L82.8215 18.0564L83.5871 14.2126L79.6642 13.4312L75.7412 12.6498L74.9756 16.4936L78.8986 17.275ZM79.6642 13.4312L81.2109 17.1201L89.1484 13.792L87.6017 10.1031L86.055 6.41423L78.1175 9.74235L79.6642 13.4312ZM87.6017 10.1031L83.6092 10.3477L85.656 43.754L89.6486 43.5093L93.6411 43.2647L91.5942 9.85846L87.6017 10.1031ZM106.552 30.9L109.632 28.3486L105.929 23.8772L103.07 28.9302L106.552 30.9ZM110.317 35.4468L114.098 36.7522L114.832 34.627L113.398 32.8955L110.317 35.4468ZM108.161 37.8531L106 34.4874L105.993 34.4919L105.985 34.4965L108.161 37.8531ZM104.13 39.5718L103.099 35.7069L103.084 35.711L103.069 35.7152L104.13 39.5718ZM95.7861 39.6656L94.4991 43.4529L94.5102 43.4567L95.7861 39.6656ZM93.3017 38.0093L96.4423 35.5322L96.4375 35.5261L96.4327 35.52L93.3017 38.0093ZM92.6298 28.525L88.8866 27.1149L88.8839 27.1219L88.8813 27.129L92.6298 28.525ZM94.4423 25.3375L91.6946 22.4305L91.6861 22.4387L94.4423 25.3375ZM96.9111 23.5406L95.0244 20.0135L95.0158 20.0181L95.0073 20.0227L96.9111 23.5406ZM106.411 22.7437L105.057 26.5077L105.077 26.5148L105.097 26.5217L106.411 22.7437ZM109.552 24.5718L112.617 27.1413L115.104 24.1742L112.22 21.5918L109.552 24.5718ZM100.974 34.8062L97.908 32.2367L92.4016 38.8062H100.974V34.8062ZM103.13 34.3375L104.806 37.9693L104.818 37.9637L104.83 37.958L103.13 34.3375ZM105.02 32.9781L107.874 35.7809L107.887 35.7683L107.899 35.7556L105.02 32.9781ZM102.224 27.2593L105.335 29.7731L108.434 25.9373L104.041 23.6963L102.224 27.2593ZM99.0204 27.2125L97.4361 23.5396L97.4228 23.5454L97.4095 23.5512L99.0204 27.2125ZM97.9111 28.025L101.073 30.4753L101.132 30.3984L101.188 30.3188L97.9111 28.025ZM97.0517 31.8218L93.1441 32.6766L97.0517 31.8218ZM97.4267 33.1968L93.5992 34.3588L95.7927 41.5844L100.538 35.7106L97.4267 33.1968ZM106.552 30.9L103.471 33.4513L107.237 37.9982L110.317 35.4468L113.398 32.8955L109.632 28.3486L106.552 30.9ZM110.317 35.4468L106.536 34.1415C106.585 34 106.634 33.9668 106.573 34.0352C106.505 34.111 106.337 34.2704 106 34.4874L108.161 37.8531L110.323 41.2188C111.879 40.219 113.395 38.7882 114.098 36.7522L110.317 35.4468ZM108.161 37.8531L105.985 34.4965C105.277 34.9556 104.337 35.3769 103.099 35.7069L104.13 39.5718L105.16 43.4368C107.048 42.9334 108.795 42.2089 110.337 41.2097L108.161 37.8531ZM104.13 39.5718L103.069 35.7152C101.849 36.0507 100.654 36.2125 99.4736 36.2125V40.2125V44.2125C101.397 44.2125 103.306 43.9472 105.191 43.4285L104.13 39.5718ZM99.4736 40.2125V36.2125C98.4471 36.2125 97.6604 36.0759 97.0619 35.8745L95.7861 39.6656L94.5102 43.4567C96.0784 43.9844 97.75 44.2125 99.4736 44.2125V40.2125ZM95.7861 39.6656L97.073 35.8783C96.5814 35.7112 96.4577 35.5517 96.4423 35.5322L93.3017 38.0093L90.161 40.4865C91.3123 41.9462 92.8449 42.8908 94.4991 43.4529L95.7861 39.6656ZM93.3017 38.0093L96.4327 35.52C96.1 35.1016 95.7861 34.4135 95.7861 33.1343H91.7861H87.7861C87.7861 35.8135 88.4825 38.3754 90.1707 40.4987L93.3017 38.0093ZM91.7861 33.1343H95.7861C95.7861 32.0635 95.9768 30.999 96.3783 29.921L92.6298 28.525L88.8813 27.129C88.1578 29.0717 87.7861 31.0802 87.7861 33.1343H91.7861ZM92.6298 28.525L96.373 29.9351C96.6082 29.3108 96.8184 28.8661 96.9898 28.5647C97.1682 28.2509 97.2523 28.1852 97.1986 28.2363L94.4423 25.3375L91.6861 22.4387C90.3831 23.6775 89.5206 25.432 88.8866 27.1149L92.6298 28.525ZM94.4423 25.3375L97.19 28.2444C97.7069 27.7558 98.248 27.3652 98.8149 27.0585L96.9111 23.5406L95.0073 20.0227C93.8033 20.6743 92.6985 21.4816 91.6946 22.4305L94.4423 25.3375ZM96.9111 23.5406L98.7977 27.0677C99.412 26.7391 100.032 26.5007 100.662 26.343L99.6923 22.4625L98.7222 18.5819C97.436 18.9034 96.2018 19.3837 95.0244 20.0135L96.9111 23.5406ZM99.6923 22.4625L100.662 26.343C101.296 26.1846 101.955 26.1031 102.645 26.1031V22.1031V18.1031C101.315 18.1031 100.005 18.2612 98.7222 18.5819L99.6923 22.4625ZM102.645 22.1031V26.1031C103.529 26.1031 104.325 26.2442 105.057 26.5077L106.411 22.7437L107.765 18.9797C106.122 18.389 104.407 18.1031 102.645 18.1031V22.1031ZM106.411 22.7437L105.097 26.5217C105.823 26.7742 106.403 27.1218 106.883 27.5519L109.552 24.5718L112.22 21.5918C110.909 20.4177 109.395 19.5465 107.725 18.9657L106.411 22.7437ZM109.552 24.5718L106.486 22.0024L97.908 32.2367L100.974 34.8062L104.039 37.3757L112.617 27.1413L109.552 24.5718ZM100.974 34.8062V38.8062C102.301 38.8062 103.593 38.5292 104.806 37.9693L103.13 34.3375L101.454 30.7056C101.313 30.7707 101.167 30.8062 100.974 30.8062V34.8062ZM103.13 34.3375L104.83 37.958C105.98 37.4182 106.994 36.6771 107.874 35.7809L105.02 32.9781L102.167 30.1753C101.901 30.4457 101.655 30.6109 101.429 30.7169L103.13 34.3375ZM105.02 32.9781L107.899 35.7556C108.729 34.8957 109.436 33.9253 110.033 32.8697L106.552 30.9L103.07 28.9302C102.772 29.458 102.458 29.873 102.142 30.2006L105.02 32.9781ZM102.224 27.2593L104.041 23.6963C103.013 23.1718 101.873 22.8687 100.661 22.8687V26.8687V30.8687C100.596 30.8687 100.533 30.8603 100.48 30.8469C100.428 30.8339 100.402 30.8206 100.406 30.8224L102.224 27.2593ZM100.661 26.8687V22.8687C99.5379 22.8687 98.453 23.1009 97.4361 23.5396L99.0204 27.2125L100.605 30.8853C100.633 30.8731 100.647 30.8701 100.649 30.8696C100.651 30.8693 100.654 30.8687 100.661 30.8687V26.8687ZM99.0204 27.2125L97.4095 23.5512C96.5256 23.9401 95.4304 24.5935 94.6341 25.7311L97.9111 28.025L101.188 30.3188C101.001 30.5856 100.815 30.7416 100.716 30.8145C100.618 30.886 100.576 30.8981 100.631 30.8737L99.0204 27.2125ZM97.9111 28.025L94.7494 25.5747C93.5918 27.0684 92.9423 28.8375 92.9423 30.775H96.9423H100.942C100.942 30.7124 100.939 30.6482 101.073 30.4753L97.9111 28.025ZM96.9423 30.775H92.9423C92.9423 31.4075 93.0057 32.0441 93.1441 32.6766L97.0517 31.8218L100.959 30.9671C100.952 30.9329 100.942 30.8716 100.942 30.775H96.9423ZM97.0517 31.8218L93.1441 32.6766C93.2506 33.1636 93.4112 33.7395 93.5992 34.3588L97.4267 33.1968L101.254 32.0349C101.088 31.4875 100.999 31.1468 100.959 30.9671L97.0517 31.8218ZM97.4267 33.1968L100.538 35.7106L105.335 29.7731L102.224 27.2593L99.1121 24.7456L94.3152 30.6831L97.4267 33.1968ZM113.642 16.2437L113.375 12.2527L109.981 12.4803L109.66 15.8661L113.642 16.2437ZM121.33 15.7281L124.737 13.6326L123.472 11.5754L121.062 11.7371L121.33 15.7281ZM123.377 19.0562L119.969 21.1517L124.183 28.0019L127.104 20.509L123.377 19.0562ZM125.174 14.4468L125.073 10.4481L122.413 10.5148L121.447 12.994L125.174 14.4468ZM130.158 14.3218L134.069 13.4808L133.372 10.24L130.058 10.3231L130.158 14.3218ZM136.049 41.7125L135.659 45.6934L141.111 46.2274L139.959 40.8715L136.049 41.7125ZM126.955 40.8218L123.016 41.52L123.546 44.5071L126.565 44.8028L126.955 40.8218ZM125.299 31.4781L129.237 30.7799L127.183 19.1913L121.75 29.6317L125.299 31.4781ZM123.502 34.9312L120.008 36.8791L123.623 43.3631L127.05 36.7776L123.502 34.9312ZM121.08 30.5875L124.573 28.6396L118.353 17.4825L117.099 30.1949L121.08 30.5875ZM120.299 38.5093L120.588 42.4988L123.949 42.255L124.279 38.9019L120.299 38.5093ZM111.47 39.15L107.488 38.7724L107.042 43.4819L111.76 43.1395L111.47 39.15ZM113.642 16.2437L113.91 20.2347L121.597 19.7191L121.33 15.7281L121.062 11.7371L113.375 12.2527L113.642 16.2437ZM121.33 15.7281L117.923 17.8236L119.969 21.1517L123.377 19.0562L126.784 16.9607L124.737 13.6326L121.33 15.7281ZM123.377 19.0562L127.104 20.509L128.9 15.8997L125.174 14.4468L121.447 12.994L119.65 17.6034L123.377 19.0562ZM125.174 14.4468L125.274 18.4456L130.258 18.3206L130.158 14.3218L130.058 10.3231L125.073 10.4481L125.174 14.4468ZM130.158 14.3218L126.247 15.1628L132.138 42.5535L136.049 41.7125L139.959 40.8715L134.069 13.4808L130.158 14.3218ZM136.049 41.7125L136.438 37.7315L127.345 36.8409L126.955 40.8218L126.565 44.8028L135.659 45.6934L136.049 41.7125ZM126.955 40.8218L130.893 40.1237L129.237 30.7799L125.299 31.4781L121.36 32.1762L123.016 41.52L126.955 40.8218ZM125.299 31.4781L121.75 29.6317L119.953 33.0848L123.502 34.9312L127.05 36.7776L128.847 33.3245L125.299 31.4781ZM123.502 34.9312L126.995 32.9833L124.573 28.6396L121.08 30.5875L117.586 32.5354L120.008 36.8791L123.502 34.9312ZM121.08 30.5875L117.099 30.1949L116.318 38.1168L120.299 38.5093L124.279 38.9019L125.06 30.98L121.08 30.5875ZM120.299 38.5093L120.009 34.5198L111.181 35.1605L111.47 39.15L111.76 43.1395L120.588 42.4988L120.299 38.5093ZM111.47 39.15L115.453 39.5275L117.624 16.6213L113.642 16.2437L109.66 15.8661L107.488 38.7724L111.47 39.15ZM151.124 22.6187L149.211 26.132L149.224 26.1387L149.236 26.1454L151.124 22.6187ZM152.92 24.2281L149.608 26.4704L149.628 26.4998L149.648 26.5288L152.92 24.2281ZM153.936 26.4937L150.053 27.4526L150.06 27.481L150.067 27.5093L153.936 26.4937ZM154.077 31.275L150.139 30.5698L150.134 30.5983L150.13 30.6269L154.077 31.275ZM152.858 34.6812L149.569 32.4044L149.552 32.4292L149.535 32.4543L152.858 34.6812ZM148.452 38.9312L150.37 42.441L150.388 42.4312L150.406 42.4212L148.452 38.9312ZM146.124 39.8687L145.129 35.9944L145.098 36.0024L145.067 36.0109L146.124 39.8687ZM141.327 39.7593L142.65 35.9847L142.636 35.9796L142.621 35.9747L141.327 39.7593ZM139.295 38.6812L136.738 41.7569L136.771 41.784L136.804 41.8103L139.295 38.6812ZM137.124 35.5718L133.406 37.0472L133.41 37.0574L137.124 35.5718ZM138.514 25.3375L141.43 28.0758L141.433 28.0725L138.514 25.3375ZM142.358 22.3531L144.158 25.9252L144.169 25.9195L144.18 25.9138L142.358 22.3531ZM148.764 21.65L147.694 25.504L147.719 25.511L147.744 25.5176L148.764 21.65ZM150.202 25.2437L154.048 24.1448L146.298 24.3706L150.202 25.2437ZM149.045 27.3375L146.193 24.5337L146.18 24.5464L146.168 24.5591L149.045 27.3375ZM146.577 28.025L144.078 31.1484L144.213 31.2569L144.358 31.3532L146.577 28.025ZM146.577 25.2906L143.283 23.0214L143.265 23.0464L143.248 23.0718L146.577 25.2906ZM148.092 24.1812L149.558 27.9028L148.092 20.1812V24.1812ZM146.092 24.5718L144.596 20.8621L144.586 20.8663L144.575 20.8706L146.092 24.5718ZM144.452 25.5875L147.105 28.5809L147.124 28.5642L147.142 28.5472L144.452 25.5875ZM143.342 26.9781L139.823 25.0775L139.816 25.0903L139.809 25.1032L143.342 26.9781ZM144.28 30.8375L142.125 34.2073L142.13 34.2104L144.28 30.8375ZM148.624 30.9L151.222 33.9409L151.238 33.9274L151.254 33.9137L148.624 30.9ZM149.936 28.9937L153.66 30.4532L153.664 30.4448L153.667 30.4363L149.936 28.9937ZM151.124 22.6187L149.236 26.1454C149.419 26.2433 149.523 26.345 149.608 26.4704L152.92 24.2281L156.233 21.9858C155.401 20.7571 154.307 19.7858 153.011 19.0921L151.124 22.6187ZM152.92 24.2281L149.648 26.5288C149.813 26.7636 149.955 27.0579 150.053 27.4526L153.936 26.4937L157.819 25.5349C157.5 24.2421 156.965 23.0259 156.193 21.9274L152.92 24.2281ZM153.936 26.4937L150.067 27.5093C150.194 27.9944 150.264 28.5218 150.264 29.1031H154.264H158.264C158.264 27.8719 158.115 26.6597 157.805 25.4781L153.936 26.4937ZM154.264 29.1031H150.264C150.264 29.6302 150.22 30.1176 150.139 30.5698L154.077 31.275L158.014 31.9802C158.183 31.0365 158.264 30.076 158.264 29.1031H154.264ZM154.077 31.275L150.13 30.6269C150.049 31.1201 149.942 31.5239 149.825 31.8515L153.592 33.1968L157.359 34.5422C157.659 33.7031 157.876 32.8256 158.024 31.923L154.077 31.275ZM153.592 33.1968L149.825 31.8515C149.707 32.1842 149.608 32.3483 149.569 32.4044L152.858 34.6812L156.147 36.9581C156.67 36.2016 157.061 35.3761 157.359 34.5422L153.592 33.1968ZM152.858 34.6812L149.535 32.4543C149.022 33.22 148.507 33.8275 148.002 34.3044L150.749 37.2125L153.495 40.1205C154.49 39.1807 155.381 38.1007 156.181 36.9082L152.858 34.6812ZM150.749 37.2125L148.002 34.3044C147.456 34.8204 146.952 35.1865 146.497 35.4412L148.452 38.9312L150.406 42.4212C151.514 41.8009 152.541 41.0212 153.495 40.1205L150.749 37.2125ZM148.452 38.9312L146.533 35.4214C146.009 35.7077 145.542 35.8882 145.129 35.9944L146.124 39.8687L147.118 43.743C148.247 43.4534 149.331 43.0089 150.37 42.441L148.452 38.9312ZM146.124 39.8687L145.067 36.0109C144.633 36.1297 144.233 36.1812 143.858 36.1812V40.1812V44.1812C144.983 44.1812 146.093 44.0244 147.18 43.7265L146.124 39.8687ZM143.858 40.1812V36.1812C143.404 36.1812 143.009 36.1106 142.65 35.9847L141.327 39.7593L140.003 43.534C141.248 43.9706 142.541 44.1812 143.858 44.1812V40.1812ZM141.327 39.7593L142.621 35.9747C142.194 35.8284 141.938 35.6721 141.787 35.5521L139.295 38.6812L136.804 41.8103C137.778 42.5862 138.876 43.1486 140.032 43.544L141.327 39.7593ZM139.295 38.6812L141.853 35.6055C141.515 35.325 141.152 34.8717 140.837 34.0863L137.124 35.5718L133.41 37.0574C134.137 38.8761 135.221 40.4958 136.738 41.7569L139.295 38.6812ZM137.124 35.5718L140.842 34.0965C140.513 33.269 140.342 32.3856 140.342 31.4156H136.342H132.342C132.342 33.3622 132.692 35.2497 133.406 37.0472L137.124 35.5718ZM136.342 31.4156H140.342C140.342 29.7203 140.806 28.7404 141.43 28.0758L138.514 25.3375L135.598 22.5991C133.327 25.0178 132.342 28.09 132.342 31.4156H136.342ZM138.514 25.3375L141.433 28.0725C142.421 27.018 143.336 26.3393 144.158 25.9252L142.358 22.3531L140.558 18.781C138.734 19.7002 137.086 21.0111 135.595 22.6025L138.514 25.3375ZM142.358 22.3531L144.18 25.9138C144.981 25.5039 145.714 25.3375 146.42 25.3375V21.3375V17.3375C144.356 17.3375 142.381 17.8481 140.536 18.7924L142.358 22.3531ZM146.42 21.3375V25.3375C146.887 25.3375 147.307 25.3967 147.694 25.504L148.764 21.65L149.835 17.7959C148.721 17.4866 147.579 17.3375 146.42 17.3375V21.3375ZM148.764 21.65L147.744 25.5176C148.127 25.6187 148.614 25.8069 149.211 26.132L151.124 22.6187L153.036 19.1054C151.987 18.5346 150.901 18.077 149.785 17.7824L148.764 21.65ZM150.202 25.2437L146.298 24.3706C146.292 24.4001 146.287 24.4377 146.193 24.5337L149.045 27.3375L151.898 30.1412C152.991 29.0289 153.758 27.6706 154.105 26.1169L150.202 25.2437ZM149.045 27.3375L146.168 24.5591C146.088 24.6414 146.131 24.5746 146.313 24.4789C146.514 24.3729 146.865 24.2437 147.327 24.2437V28.2437V32.2437C149.411 32.2437 150.956 31.1176 151.923 30.1158L149.045 27.3375ZM147.327 28.2437V24.2437C147.777 24.2437 148.311 24.3735 148.795 24.6968L146.577 28.025L144.358 31.3532C145.28 31.9681 146.314 32.2437 147.327 32.2437V28.2437ZM146.577 28.025L149.075 24.9015C149.587 25.3105 149.861 25.7982 149.992 26.164C150.054 26.3369 150.082 26.476 150.095 26.5641C150.108 26.6522 150.108 26.7047 150.108 26.7125H146.108H142.108C142.108 27.8646 142.385 29.7943 144.078 31.1484L146.577 28.025ZM146.108 26.7125H150.108C150.108 26.9158 150.074 27.0998 150.024 27.25C149.976 27.3956 149.923 27.4821 149.905 27.5094L146.577 25.2906L143.248 23.0718C142.577 24.0797 142.108 25.3129 142.108 26.7125H146.108ZM146.577 25.2906L149.871 27.5598C149.625 27.9161 149.393 27.9682 149.558 27.9028L148.092 24.1812L146.626 20.4596C145.417 20.9359 144.174 21.7276 143.283 23.0214L146.577 25.2906ZM148.092 24.1812V20.1812C146.885 20.1812 145.711 20.4125 144.596 20.8621L146.092 24.5718L147.588 28.2816C147.765 28.2104 147.924 28.1812 148.092 28.1812V24.1812ZM146.092 24.5718L144.575 20.8706C143.555 21.2888 142.6 21.8651 141.761 22.6277L144.452 25.5875L147.142 28.5472C147.22 28.4765 147.359 28.3758 147.609 28.2731L146.092 24.5718ZM144.452 25.5875L141.798 22.5941C141.002 23.3001 140.334 24.1302 139.823 25.0775L143.342 26.9781L146.862 28.8787C146.913 28.7843 146.985 28.6873 147.105 28.5809L144.452 25.5875ZM143.342 26.9781L139.809 25.1032C139.266 26.1268 138.936 27.2813 138.936 28.525H142.936H146.936C146.936 28.6155 146.924 28.6977 146.906 28.7637C146.89 28.8279 146.873 28.8584 146.876 28.853L143.342 26.9781ZM142.936 28.525H138.936C138.936 31.0095 140.213 32.9847 142.125 34.2073L144.28 30.8375L146.435 27.4677C146.421 27.4586 146.578 27.5581 146.73 27.82C146.892 28.0972 146.936 28.3665 146.936 28.525H142.936ZM144.28 30.8375L142.13 34.2104C143.405 35.0237 144.936 35.6343 146.655 35.6343V31.6343V27.6343C146.873 27.6343 146.821 27.7137 146.43 27.4646L144.28 30.8375ZM146.655 31.6343V35.6343C148.367 35.6343 149.94 35.0366 151.222 33.9409L148.624 30.9L146.025 27.859C146.067 27.823 146.161 27.7562 146.304 27.703C146.447 27.6494 146.574 27.6343 146.655 27.6343V31.6343ZM148.624 30.9L151.254 33.9137C152.353 32.9543 153.145 31.7682 153.66 30.4532L149.936 28.9937L146.212 27.5342C146.123 27.7609 146.04 27.8456 145.993 27.8863L148.624 30.9ZM149.936 28.9937L153.667 30.4363C154.129 29.2416 154.389 27.9827 154.389 26.6812H150.389H146.389C146.389 26.9006 146.347 27.1833 146.205 27.5511L149.936 28.9937ZM150.389 26.6812H154.389C154.389 25.8413 154.288 24.987 154.048 24.1448L150.202 25.2437L146.356 26.3426C146.365 26.3755 146.389 26.4795 146.389 26.6812H150.389ZM162.933 21.4937L159.906 24.1082L161.657 26.1355L164.198 25.2884L162.933 21.4937ZM165.917 20.6187L166.842 24.5105L166.865 24.505L166.887 24.4993L165.917 20.6187ZM170.995 20.9781L168.986 24.4366L168.996 24.4427L169.007 24.4487L170.995 20.9781ZM175.995 27.2593L172.104 28.1858L172.109 28.2055L172.114 28.2252L175.995 27.2593ZM176.652 35.8375L180.623 36.3123L180.624 36.3073L176.652 35.8375ZM176.12 39.5406L176.359 43.5335L179.568 43.3416L180.071 40.1672L176.12 39.5406ZM169.589 39.9312L165.592 39.7713L165.416 44.188L169.828 43.9241L169.589 39.9312ZM167.933 27.2593L171.656 25.7971L171.647 25.773L171.637 25.749L167.933 27.2593ZM164.855 27.9L161.19 26.2967L161.184 26.3105L161.178 26.3243L164.855 27.9ZM164.464 29.15L160.559 28.2822L160.55 28.3238L160.542 28.3655L164.464 29.15ZM164.245 30.7281L160.261 30.3724L160.258 30.4077L160.256 30.4431L164.245 30.7281ZM164.464 38.9L164.925 42.8733L168.744 42.43L168.453 38.597L164.464 38.9ZM156.792 39.7906L152.829 40.331L153.359 44.216L157.254 43.7639L156.792 39.7906ZM156.199 34.5406L152.207 34.8067L152.209 34.8353L152.212 34.8639L156.199 34.5406ZM156.183 30.3531L160.176 30.5813L160.186 30.4056L160.181 30.2296L156.183 30.3531ZM155.902 21.2437L155.397 17.2757L151.791 17.7344L151.904 21.3672L155.902 21.2437ZM162.042 20.4625L165.07 17.848L163.667 16.2236L161.537 16.4944L162.042 20.4625ZM162.933 21.4937L164.198 25.2884C165.285 24.9262 166.16 24.6724 166.842 24.5105L165.917 20.6187L164.993 16.727C164.008 16.9609 162.894 17.2904 161.668 17.699L162.933 21.4937ZM165.917 20.6187L166.887 24.4993C167.444 24.3602 167.914 24.3062 168.308 24.3062V20.3062V16.3062C167.181 16.3062 166.058 16.4606 164.947 16.7381L165.917 20.6187ZM168.308 20.3062V24.3062C168.727 24.3062 168.909 24.3922 168.986 24.4366L170.995 20.9781L173.005 17.5196C171.54 16.6682 169.931 16.3062 168.308 16.3062V20.3062ZM170.995 20.9781L169.007 24.4487C169.36 24.651 170.008 25.1649 170.929 26.2649L173.995 23.6968L177.062 21.1288C175.838 19.6663 174.485 18.3677 172.984 17.5075L170.995 20.9781ZM173.995 23.6968L170.929 26.2649C171.781 27.283 172.04 27.9176 172.104 28.1858L175.995 27.2593L179.887 26.3329C179.43 24.4136 178.356 22.6732 177.062 21.1288L173.995 23.6968ZM175.995 27.2593L172.114 28.2252C172.615 30.2383 172.824 31.838 172.824 33.0718H176.824H180.824C180.824 30.9932 180.48 28.7179 179.877 26.2935L175.995 27.2593ZM176.824 33.0718H172.824C172.824 33.7732 172.778 34.5374 172.679 35.3676L176.652 35.8375L180.624 36.3073C180.755 35.2001 180.824 34.1205 180.824 33.0718H176.824ZM176.652 35.8375L172.68 35.3626C172.574 36.2498 172.405 37.4286 172.17 38.9139L176.12 39.5406L180.071 40.1672C180.315 38.6318 180.5 37.3417 180.623 36.3123L176.652 35.8375ZM176.12 39.5406L175.882 35.5477L169.35 35.9383L169.589 39.9312L169.828 43.9241L176.359 43.5335L176.12 39.5406ZM169.589 39.9312L173.586 40.0911C173.61 39.4894 173.62 38.6762 173.62 37.6812H169.62H165.62C165.62 38.6446 165.61 39.3313 165.592 39.7713L169.589 39.9312ZM169.62 37.6812H173.62C173.62 33.2519 173.013 29.2524 171.656 25.7971L167.933 27.2593L164.21 28.7215C165.103 30.9955 165.62 33.9439 165.62 37.6812H169.62ZM167.933 27.2593L171.637 25.749C171.359 25.0669 170.972 24.2624 170.414 23.5609C169.925 22.9465 168.686 21.65 166.652 21.65V25.65V29.65C165.856 29.65 165.227 29.3845 164.82 29.1261C164.441 28.8848 164.229 28.637 164.155 28.5437C164.024 28.3787 164.07 28.3788 164.229 28.7697L167.933 27.2593ZM166.652 25.65V21.65C164.487 21.65 163.171 23.0903 162.671 23.7163C162.053 24.4895 161.575 25.4178 161.19 26.2967L164.855 27.9L168.519 29.5032C168.791 28.8821 168.94 28.6855 168.922 28.7086C168.907 28.7275 168.753 28.9223 168.432 29.1328C168.092 29.3568 167.478 29.65 166.652 29.65V25.65ZM164.855 27.9L161.178 26.3243C160.906 26.959 160.707 27.6197 160.559 28.2822L164.464 29.15L168.369 30.0177C168.43 29.7428 168.491 29.5701 168.531 29.4756L164.855 27.9ZM164.464 29.15L160.542 28.3655C160.414 29.0032 160.323 29.6758 160.261 30.3724L164.245 30.7281L168.23 31.0838C168.272 30.6137 168.327 30.2342 168.387 29.9344L164.464 29.15ZM164.245 30.7281L160.256 30.4431C160.205 31.1477 160.183 31.9346 160.183 32.7906H164.183H168.183C168.183 32.0633 168.202 31.4752 168.235 31.0131L164.245 30.7281ZM164.183 32.7906H160.183C160.183 34.5345 160.284 36.6811 160.476 39.2029L164.464 38.9L168.453 38.597C168.269 36.1814 168.183 34.2551 168.183 32.7906H164.183ZM164.464 38.9L164.003 34.9266L156.331 35.8173L156.792 39.7906L157.254 43.7639L164.925 42.8733L164.464 38.9ZM156.792 39.7906L160.756 39.2501C160.634 38.3609 160.523 37.4774 160.422 36.5995L156.449 37.0562L152.475 37.513C152.582 38.4476 152.7 39.3869 152.829 40.331L156.792 39.7906ZM156.449 37.0562L160.422 36.5995C160.322 35.73 160.244 34.9365 160.185 34.2173L156.199 34.5406L152.212 34.8639C152.278 35.6863 152.366 36.5699 152.475 37.513L156.449 37.0562ZM156.199 34.5406L160.19 34.2745C160.144 33.5933 160.12 32.8444 160.12 32.025H156.12H152.12C152.12 32.9972 152.149 33.9253 152.207 34.8067L156.199 34.5406ZM156.12 32.025H160.12C160.12 31.7555 160.136 31.2887 160.176 30.5813L156.183 30.3531L152.189 30.1249C152.147 30.8758 152.12 31.5236 152.12 32.025H156.12ZM156.183 30.3531L160.181 30.2296L159.9 21.1203L155.902 21.2437L151.904 21.3672L152.185 30.4765L156.183 30.3531ZM155.902 21.2437L156.407 25.2117L162.547 24.4305L162.042 20.4625L161.537 16.4944L155.397 17.2757L155.902 21.2437ZM162.042 20.4625L159.015 23.0769L159.906 24.1082L162.933 21.4937L165.96 18.8792L165.07 17.848L162.042 20.4625Z" fill="#3466AF" mask="url(#path-1-outside-1_173_97)"/>
</g>
<defs>
<filter id="filter0_dd_173_97" x="0" y="0" width="182.824" height="50.116" filterUnits="userSpaceOnUse" color-interpolation-filters="sRGB">
<feFlood flood-opacity="0" result="BackgroundImageFix"/>
<feColorMatrix in="SourceAlpha" type="matrix" values="0 0 0 0 0 0 0 0 0 0 0 0 0 0 0 0 0 0 127 0" result="hardAlpha"/>
<feOffset dx="-2" dy="2"/>
<feComposite in2="hardAlpha" operator="out"/>
<feColorMatrix type="matrix" values="0 0 0 0 0.113725 0 0 0 0 0.172549 0 0 0 0 0.368627 0 0 0 1 0"/>
<feBlend mode="normal" in2="BackgroundImageFix" result="effect1_dropShadow_173_97"/>
<feColorMatrix in="SourceAlpha" type="matrix" values="0 0 0 0 0 0 0 0 0 0 0 0 0 0 0 0 0 0 127 0" result="hardAlpha"/>
<feOffset dx="2" dy="2"/>
<feComposite in2="hardAlpha" operator="out"/>
<feColorMatrix type="matrix" values="0 0 0 0 0.113725 0 0 0 0 0.172549 0 0 0 0 0.368627 0 0 0 1 0"/>
<feBlend mode="normal" in2="effect1_dropShadow_173_97" result="effect2_dropShadow_173_97"/>
<feBlend mode="normal" in="SourceGraphic" in2="effect2_dropShadow_173_97" result="shape"/>
</filter>
</defs>
</svg>
