<svg width="17" height="17" viewBox="0 0 17 17" fill="none" xmlns="http://www.w3.org/2000/svg">
<g clip-path="url(#clip0_143_72)">
<circle cx="8.5" cy="8.5" r="8.5" transform="rotate(180 8.5 8.5)" fill="#D90000"/>
<path d="M9.08389 11.7265L12.8065 7.33057C13.2458 6.81166 12.8887 6 12.222 6L4.77685 6C4.62763 5.99987 4.48154 6.04418 4.35607 6.12764C4.2306 6.21109 4.13107 6.33015 4.0694 6.47055C4.00772 6.61095 3.98653 6.76674 4.00834 6.91927C4.03015 7.0718 4.09405 7.2146 4.19238 7.33057L7.91496 11.7257C7.98781 11.8119 8.07765 11.8809 8.17846 11.9282C8.27927 11.9755 8.3887 12 8.49942 12C8.61014 12 8.71957 11.9755 8.82038 11.9282C8.92119 11.8809 9.01103 11.8127 9.08389 11.7265Z" fill="white"/>
</g>
<defs>
<clipPath id="clip0_143_72">
<rect width="17" height="17" fill="white" transform="matrix(-1 0 0 -1 17 17)"/>
</clipPath>
</defs>
</svg>
