<svg width="17" height="17" viewBox="0 0 17 17" fill="none" xmlns="http://www.w3.org/2000/svg">
<g clip-path="url(#clip0_143_46)">
<circle cx="8.5" cy="8.5" r="8.5" fill="#00BE00"/>
<path d="M7.91611 5.27348L4.19354 9.66943C3.75422 10.1883 4.11127 11 4.77801 11H12.2232C12.3724 11.0001 12.5185 10.9558 12.6439 10.8724C12.7694 10.7889 12.8689 10.6699 12.9306 10.5295C12.9923 10.3891 13.0135 10.2333 12.9917 10.0807C12.9699 9.9282 12.906 9.7854 12.8076 9.66943L9.08504 5.27428C9.01219 5.18813 8.92235 5.11909 8.82154 5.07178C8.72073 5.02448 8.6113 5 8.50058 5C8.38986 5 8.28043 5.02448 8.17962 5.07178C8.07881 5.11909 7.98897 5.18733 7.91611 5.27348Z" fill="white"/>
</g>
<defs>
<clipPath id="clip0_143_46">
<rect width="17" height="17" fill="white"/>
</clipPath>
</defs>
</svg>
